<?xml version="1.0" encoding="UTF-8" standalone="no"?>
<!-- Created with Inkscape (http://www.inkscape.org/) -->

<svg
   xmlns:dc="http://purl.org/dc/elements/1.1/"
   xmlns:cc="http://creativecommons.org/ns#"
   xmlns:rdf="http://www.w3.org/1999/02/22-rdf-syntax-ns#"
   xmlns:svg="http://www.w3.org/2000/svg"
   xmlns="http://www.w3.org/2000/svg"
   xmlns:sodipodi="http://sodipodi.sourceforge.net/DTD/sodipodi-0.dtd"
   xmlns:inkscape="http://www.inkscape.org/namespaces/inkscape"
   width="213.11456mm"
   height="226.43295mm"
   viewBox="0 0 213.11456 226.43295"
   version="1.1"
   id="svg24745"
   inkscape:version="0.92.2 (5c3e80d, 2017-08-06)"
   sodipodi:docname="bootsectors.svg"
   inkscape:export-filename="/home/peikos/annex/hu/vakken/v1eos/dev18/git/Slides/images/bootsectors.png"
   inkscape:export-xdpi="149.86"
   inkscape:export-ydpi="149.86">
  <defs
     id="defs24739">
    <marker
       inkscape:isstock="true"
       style="overflow:visible"
       id="marker25961"
       refX="0"
       refY="0"
       orient="auto"
       inkscape:stockid="Arrow1Lend">
      <path
         transform="matrix(-0.8,0,0,-0.8,-10,0)"
         style="fill:#000000;fill-opacity:1;fill-rule:evenodd;stroke:#000000;stroke-width:1.00000003pt;stroke-opacity:1"
         d="M 0,0 5,-5 -12.5,0 5,5 Z"
         id="path25959"
         inkscape:connector-curvature="0" />
    </marker>
    <marker
       inkscape:isstock="true"
       style="overflow:visible"
       id="marker25903"
       refX="0"
       refY="0"
       orient="auto"
       inkscape:stockid="Arrow1Lend">
      <path
         transform="matrix(-0.8,0,0,-0.8,-10,0)"
         style="fill:#000000;fill-opacity:1;fill-rule:evenodd;stroke:#000000;stroke-width:1.00000003pt;stroke-opacity:1"
         d="M 0,0 5,-5 -12.5,0 5,5 Z"
         id="path25901"
         inkscape:connector-curvature="0" />
    </marker>
    <marker
       inkscape:isstock="true"
       style="overflow:visible"
       id="marker25851"
       refX="0"
       refY="0"
       orient="auto"
       inkscape:stockid="Arrow1Lend">
      <path
         transform="matrix(-0.8,0,0,-0.8,-10,0)"
         style="fill:#000000;fill-opacity:1;fill-rule:evenodd;stroke:#000000;stroke-width:1.00000003pt;stroke-opacity:1"
         d="M 0,0 5,-5 -12.5,0 5,5 Z"
         id="path25849"
         inkscape:connector-curvature="0" />
    </marker>
    <marker
       inkscape:isstock="true"
       style="overflow:visible"
       id="marker25841"
       refX="0"
       refY="0"
       orient="auto"
       inkscape:stockid="Arrow1Lend">
      <path
         transform="matrix(-0.8,0,0,-0.8,-10,0)"
         style="fill:#000000;fill-opacity:1;fill-rule:evenodd;stroke:#000000;stroke-width:1.00000003pt;stroke-opacity:1"
         d="M 0,0 5,-5 -12.5,0 5,5 Z"
         id="path25839"
         inkscape:connector-curvature="0" />
    </marker>
    <marker
       inkscape:stockid="Arrow1Lend"
       orient="auto"
       refY="0"
       refX="0"
       id="Arrow1Lend"
       style="overflow:visible"
       inkscape:isstock="true"
       inkscape:collect="always">
      <path
         id="path17962"
         d="M 0,0 5,-5 -12.5,0 5,5 Z"
         style="fill:#000000;fill-opacity:1;fill-rule:evenodd;stroke:#000000;stroke-width:1.00000003pt;stroke-opacity:1"
         transform="matrix(-0.8,0,0,-0.8,-10,0)"
         inkscape:connector-curvature="0" />
    </marker>
    <marker
       inkscape:isstock="true"
       style="overflow:visible"
       id="marker25745"
       refX="0"
       refY="0"
       orient="auto"
       inkscape:stockid="Arrow1Mend">
      <path
         transform="matrix(-0.4,0,0,-0.4,-4,0)"
         style="fill:#000000;fill-opacity:1;fill-rule:evenodd;stroke:#000000;stroke-width:1.00000003pt;stroke-opacity:1"
         d="M 0,0 5,-5 -12.5,0 5,5 Z"
         id="path25743"
         inkscape:connector-curvature="0" />
    </marker>
    <marker
       inkscape:isstock="true"
       style="overflow:visible"
       id="marker25711"
       refX="0"
       refY="0"
       orient="auto"
       inkscape:stockid="Arrow1Mend">
      <path
         transform="matrix(-0.4,0,0,-0.4,-4,0)"
         style="fill:#999999;fill-opacity:1;fill-rule:evenodd;stroke:#000000;stroke-width:1.00000003pt;stroke-opacity:1"
         d="M 0,0 5,-5 -12.5,0 5,5 Z"
         id="path25709"
         inkscape:connector-curvature="0" />
    </marker>
    <marker
       inkscape:isstock="true"
       style="overflow:visible"
       id="marker25683"
       refX="0"
       refY="0"
       orient="auto"
       inkscape:stockid="Arrow1Mend">
      <path
         transform="matrix(-0.4,0,0,-0.4,-4,0)"
         style="fill:#999999;fill-opacity:1;fill-rule:evenodd;stroke:#000000;stroke-width:1.00000003pt;stroke-opacity:1"
         d="M 0,0 5,-5 -12.5,0 5,5 Z"
         id="path25681"
         inkscape:connector-curvature="0" />
    </marker>
    <marker
       inkscape:isstock="true"
       style="overflow:visible"
       id="marker25661"
       refX="0"
       refY="0"
       orient="auto"
       inkscape:stockid="Arrow1Mend">
      <path
         transform="matrix(-0.4,0,0,-0.4,-4,0)"
         style="fill:#000000;fill-opacity:1;fill-rule:evenodd;stroke:#000000;stroke-width:1.00000003pt;stroke-opacity:1"
         d="M 0,0 5,-5 -12.5,0 5,5 Z"
         id="path25659"
         inkscape:connector-curvature="0" />
    </marker>
  </defs>
  <sodipodi:namedview
     id="base"
     pagecolor="#ffffff"
     bordercolor="#666666"
     borderopacity="1.0"
     inkscape:pageopacity="0.0"
     inkscape:pageshadow="2"
     inkscape:zoom="0.39732043"
     inkscape:cx="541.62826"
     inkscape:cy="526.32582"
     inkscape:document-units="mm"
     inkscape:current-layer="layer1"
     showgrid="false"
     inkscape:window-width="1920"
     inkscape:window-height="1070"
     inkscape:window-x="0"
     inkscape:window-y="10"
     inkscape:window-maximized="0"
     fit-margin-top="0"
     fit-margin-left="0"
     fit-margin-right="0"
     fit-margin-bottom="0" />
  <metadata
     id="metadata24742">
    <rdf:RDF>
      <cc:Work
         rdf:about="">
        <dc:format>image/svg+xml</dc:format>
        <dc:type
           rdf:resource="http://purl.org/dc/dcmitype/StillImage" />
        <dc:title></dc:title>
      </cc:Work>
    </rdf:RDF>
  </metadata>
  <g
     inkscape:label="Layer 1"
     inkscape:groupmode="layer"
     id="layer1"
     transform="translate(1.3420416,-37.281278)">
    <rect
       style="opacity:1;fill:#ffffff;fill-opacity:1;stroke:#666666;stroke-width:0.02040626;stroke-miterlimit:4;stroke-dasharray:none;stroke-dashoffset:0;stroke-opacity:1"
       id="rect26276"
       width="213.09416"
       height="226.41255"
       x="-1.3318385"
       y="37.291481" />
    <text
       id="text25342"
       y="50.260956"
       x="104.53448"
       style="font-style:normal;font-weight:normal;font-size:10.58333302px;line-height:1.25;font-family:sans-serif;letter-spacing:0px;word-spacing:0px;fill:#000000;fill-opacity:1;stroke:none;stroke-width:0.26458332"
       xml:space="preserve"><tspan
         style="font-style:normal;font-variant:normal;font-weight:normal;font-stretch:normal;font-size:5.64444447px;font-family:'Avenir LT 45 Book';-inkscape-font-specification:'Avenir LT 45 Book, ';stroke-width:0.26458332"
         y="50.260956"
         x="104.53448"
         id="tspan25340"
         sodipodi:role="line">MBR</tspan></text>
    <text
       xml:space="preserve"
       style="font-style:normal;font-weight:normal;font-size:10.58333302px;line-height:1.25;font-family:sans-serif;letter-spacing:0px;word-spacing:0px;fill:#000000;fill-opacity:1;stroke:none;stroke-width:0.26458332"
       x="9.6529617"
       y="62.503731"
       id="text25346"><tspan
         sodipodi:role="line"
         id="tspan25344"
         x="9.6529617"
         y="62.503731"
         style="font-style:normal;font-variant:normal;font-weight:normal;font-stretch:normal;font-size:5.64444447px;font-family:'Avenir LT 45 Book';-inkscape-font-specification:'Avenir LT 45 Book, ';stroke-width:0.26458332">Start Partition 1 Data</tspan></text>
    <text
       id="text25354"
       y="50.260952"
       x="36.728333"
       style="font-style:normal;font-weight:normal;font-size:10.58333302px;line-height:1.25;font-family:sans-serif;letter-spacing:0px;word-spacing:0px;fill:#000000;fill-opacity:1;stroke:none;stroke-width:0.26458332"
       xml:space="preserve"><tspan
         style="font-style:normal;font-variant:normal;font-weight:normal;font-stretch:normal;font-size:5.64444447px;font-family:'Avenir LT 45 Book';-inkscape-font-specification:'Avenir LT 45 Book, ';stroke-width:0.26458332"
         y="50.260952"
         x="36.728333"
         id="tspan25352"
         sodipodi:role="line">Partition 1 Boot Record</tspan></text>
    <text
       id="text25358"
       y="225.66228"
       x="154.44734"
       style="font-style:normal;font-weight:normal;font-size:10.58333302px;line-height:1.25;font-family:sans-serif;letter-spacing:0px;word-spacing:0px;fill:#000000;fill-opacity:1;stroke:none;stroke-width:0.26458332"
       xml:space="preserve"><tspan
         style="font-style:normal;font-variant:normal;font-weight:normal;font-stretch:normal;font-size:5.64444447px;font-family:'Avenir LT 45 Book';-inkscape-font-specification:'Avenir LT 45 Book, ';stroke-width:0.26458332"
         y="225.66228"
         x="154.44734"
         id="tspan25356"
         sodipodi:role="line">Start Partition 1 Data</tspan></text>
    <text
       xml:space="preserve"
       style="font-style:normal;font-weight:normal;font-size:10.58333302px;line-height:1.25;font-family:sans-serif;letter-spacing:0px;word-spacing:0px;fill:#000000;fill-opacity:1;stroke:none;stroke-width:0.26458332"
       x="130.19724"
       y="237.43419"
       id="text25362"><tspan
         sodipodi:role="line"
         id="tspan25360"
         x="130.19724"
         y="237.43419"
         style="font-style:normal;font-variant:normal;font-weight:normal;font-stretch:normal;font-size:5.64444447px;font-family:'Avenir LT 45 Book';-inkscape-font-specification:'Avenir LT 45 Book, ';stroke-width:0.26458332">Partition 1 Boot Record</tspan></text>
    <path
       style="fill:none;stroke:#000000;stroke-width:0.26499999;stroke-linecap:butt;stroke-linejoin:miter;stroke-miterlimit:4;stroke-dasharray:none;stroke-opacity:1;marker-end:url(#marker25841)"
       d="M 111.59762,52.144458 108.30149,65.09355"
       id="path25364"
       inkscape:connector-curvature="0" />
    <path
       style="fill:none;stroke:#000000;stroke-width:0.26499999;stroke-linecap:butt;stroke-linejoin:miter;stroke-miterlimit:4;stroke-dasharray:none;stroke-opacity:1;marker-end:url(#Arrow1Lend)"
       d="m 77.694546,51.909022 6.592265,18.599602"
       id="path25366"
       inkscape:connector-curvature="0" />
    <path
       style="fill:none;stroke:#000000;stroke-width:0.26499999;stroke-linecap:butt;stroke-linejoin:miter;stroke-miterlimit:4;stroke-dasharray:none;stroke-opacity:1;marker-end:url(#marker25961)"
       d="M 36.728331,65.09355 65.922646,80.397021"
       id="path25368"
       inkscape:connector-curvature="0" />
    <path
       style="fill:#000000;stroke:#000000;stroke-width:0.26499999;stroke-linecap:butt;stroke-linejoin:miter;stroke-miterlimit:4;stroke-dasharray:none;stroke-opacity:1;marker-end:url(#marker25851)"
       d="M 150.44489,232.0191 138.43755,200.94128"
       id="path25372"
       inkscape:connector-curvature="0" />
    <g
       id="g26274">
      <path
         inkscape:connector-curvature="0"
         id="path25589"
         d="m 134.24816,100.96349 c -1.99043,-0.986808 -6.9967,-2.909202 -8.17568,-3.139434 -0.0255,-0.005 0.38491,-1.611961 0.91196,-3.571079 l 0.95828,-3.562035 1.20698,0.35433 c 3.06492,0.899761 9.60319,3.673036 11.17513,4.740048 0.24598,0.16697 -0.0848,0.905922 -1.50652,3.365553 -1.00194,1.733387 -1.83243,3.151607 -1.84554,3.151607 -0.0131,0 -1.23918,-0.60255 -2.72461,-1.33899 z"
         style="opacity:1;fill:#d45500;fill-opacity:1;stroke:#d45500;stroke-width:0.02037418;stroke-miterlimit:4;stroke-dasharray:none;stroke-dashoffset:0;stroke-opacity:1" />
      <path
         inkscape:connector-curvature="0"
         id="path25378"
         d="m 94.592809,71.469876 c -0.500952,-1.890919 -0.847485,-3.501371 -0.770073,-3.578783 0.21921,-0.21921 3.530722,-0.977165 6.515594,-1.491316 3.33607,-0.574649 6.04431,-0.868696 9.94725,-1.080021 l 3.00184,-0.162534 v 3.648379 3.64838 l -1.23605,0.148465 c -0.67983,0.08166 -1.76643,0.149389 -2.41468,0.150514 -2.63244,0.0046 -8.33406,0.859882 -13.658076,2.048872 -0.429964,0.09602 -0.561321,-0.219808 -1.385805,-3.331956 z"
         style="opacity:1;fill:#666666;fill-opacity:1;stroke:#666666;stroke-width:0.02040626;stroke-miterlimit:4;stroke-dasharray:none;stroke-dashoffset:0;stroke-opacity:1" />
      <path
         inkscape:connector-curvature="0"
         id="path25389"
         d="M 78.012898,81.159069 C 76.4199,78.50888 74.911021,75.831871 74.911021,75.655804 c 0,-0.296331 4.075813,-2.409288 7.651734,-3.966766 2.916515,-1.270277 9.621054,-3.642791 10.294236,-3.642791 0.210473,0 0.623573,1.154594 1.224013,3.421052 0.498477,1.881582 0.864957,3.462422 0.814398,3.512981 -0.05056,0.05056 -1.521748,0.56264 -3.269311,1.13796 -3.826504,1.259734 -7.518233,2.812119 -10.759,4.5242 l -2.401978,1.268953 z"
         style="opacity:1;fill:#0088aa;fill-opacity:1;stroke:#0088aa;stroke-width:0.02037418;stroke-miterlimit:4;stroke-dasharray:none;stroke-dashoffset:0;stroke-opacity:1" />
      <path
         inkscape:connector-curvature="0"
         id="path25391"
         d="m 61.180601,90.455696 -2.539084,-2.546982 1.882375,-1.79841 c 2.576185,-2.461274 6.394196,-5.467782 9.913805,-7.806669 4.303215,-2.859617 3.700656,-2.839074 5.226997,-0.178202 0.719741,1.25472 1.535269,2.664285 1.81229,3.132365 l 0.503672,0.851053 -3.359462,2.248996 c -3.716872,2.488266 -6.253197,4.46777 -8.942475,6.979258 -0.980914,0.916064 -1.822979,1.665571 -1.871258,1.665571 -0.04828,0 -1.230365,-1.146141 -2.62686,-2.54698 z"
         style="opacity:1;fill:#00aad4;fill-opacity:1;stroke:#00aad4;stroke-width:0.02037418;stroke-miterlimit:4;stroke-dasharray:none;stroke-dashoffset:0;stroke-opacity:1" />
      <path
         inkscape:connector-curvature="0"
         id="path25393"
         d="m 49.719153,106.16528 c -1.359654,-0.78328 -2.71672,-1.58208 -3.015702,-1.7751 l -0.543603,-0.35094 0.636956,-1.10382 c 2.130734,-3.692483 6.431187,-9.36452 9.632333,-12.704464 l 1.883503,-1.965171 2.569493,2.587524 2.569495,2.587525 -1.724509,1.841002 c -2.981243,3.182633 -6.738749,8.148424 -8.652692,11.435104 -0.282776,0.48559 -0.59717,0.88055 -0.698656,0.87769 -0.101487,-0.003 -1.296964,-0.64606 -2.656618,-1.42935 z"
         style="opacity:1;fill:#00aad4;fill-opacity:1;stroke:#00aad4;stroke-width:0.02037418;stroke-miterlimit:4;stroke-dasharray:none;stroke-dashoffset:0;stroke-opacity:1" />
      <path
         inkscape:connector-curvature="0"
         id="path25395"
         d="m 44.304079,124.51569 c -0.45322,-0.12576 -2.004896,-0.55016 -3.448171,-0.94313 l -2.624138,-0.71448 0.469247,-1.68431 c 0.918966,-3.29854 2.835193,-8.10432 4.925306,-12.35237 1.166656,-2.37118 2.201299,-4.27823 2.299202,-4.23789 0.09791,0.0403 1.547747,0.85203 3.221869,1.80375 l 3.043859,1.73041 -1.901156,3.81363 c -1.915324,3.84205 -3.701557,8.3302 -4.483864,11.2663 -0.232889,0.87407 -0.48074,1.57965 -0.550778,1.56798 -0.07004,-0.0117 -0.498158,-0.12413 -0.951376,-0.24989 z"
         style="opacity:1;fill:#00aad4;fill-opacity:1;stroke:#00aad4;stroke-width:0.02037418;stroke-miterlimit:4;stroke-dasharray:none;stroke-dashoffset:0;stroke-opacity:1" />
      <path
         inkscape:connector-curvature="0"
         id="path25397"
         d="m 35.592872,140.90762 c 0,-3.37989 0.621297,-8.69117 1.555101,-13.29408 0.459563,-2.26528 0.868966,-4.15209 0.909789,-4.19291 0.05906,-0.0591 5.094398,1.23515 6.740464,1.73247 0.337643,0.10201 0.31996,0.3619 -0.171612,2.5224 -0.777779,3.41838 -1.45592,8.46415 -1.64479,12.2382 l -0.162007,3.23727 h -3.613473 -3.613472 z"
         style="opacity:1;fill:#00aad4;fill-opacity:1;stroke:#00aad4;stroke-width:0.02037418;stroke-miterlimit:4;stroke-dasharray:none;stroke-dashoffset:0;stroke-opacity:1" />
      <path
         inkscape:connector-curvature="0"
         id="path25399"
         d="M 37.389043,160.27909 C 36.429484,155.8883 35.837765,151.42989 35.67044,147.33 l -0.151337,-3.70815 h 3.650964 3.650965 l 0.163465,3.11955 c 0.203893,3.89108 0.689318,7.65452 1.455176,11.28182 0.325263,1.54052 0.640966,2.93016 0.701567,3.08807 0.0749,0.1952 -0.964804,0.57052 -3.247607,1.17234 -1.846784,0.48687 -3.474001,0.88395 -3.616042,0.8824 -0.142042,-0.002 -0.541888,-1.30068 -0.888548,-2.88694 z"
         style="opacity:1;fill:#00aad4;fill-opacity:1;stroke:#00aad4;stroke-width:0.02037418;stroke-miterlimit:4;stroke-dasharray:none;stroke-dashoffset:0;stroke-opacity:1" />
      <path
         inkscape:connector-curvature="0"
         id="path25401"
         d="m 44.588324,179.8362 c -1.841611,-3.43056 -3.762391,-7.96602 -5.153366,-12.16844 -0.701517,-2.11943 -1.243772,-3.8763 -1.205016,-3.90415 0.130691,-0.0939 6.704248,-1.77759 6.940312,-1.77759 0.128598,0 0.414038,0.64823 0.634315,1.44052 0.863528,3.10594 2.620626,7.56288 4.426738,11.22858 1.040643,2.1121 1.854375,3.8728 1.808292,3.91267 -0.206753,0.17888 -5.540105,3.18138 -5.886288,3.31378 -0.302245,0.1156 -0.646351,-0.33413 -1.564987,-2.04537 z"
         style="opacity:1;fill:#00aad4;fill-opacity:1;stroke:#00aad4;stroke-width:0.02037418;stroke-miterlimit:4;stroke-dasharray:none;stroke-dashoffset:0;stroke-opacity:1" />
      <path
         inkscape:connector-curvature="0"
         id="path25403"
         d="m 56.269035,196.30111 c -2.796513,-3.07434 -5.63323,-6.70684 -7.818789,-10.01221 -1.110427,-1.67937 -2.080895,-3.21481 -2.156595,-3.41209 -0.102402,-0.26684 0.665054,-0.81759 2.9977,-2.15122 2.705081,-1.54656 3.167647,-1.74112 3.370776,-1.41773 2.897854,4.61346 5.510749,8.11675 8.679373,11.63703 l 2.01323,2.23666 -2.517029,2.53096 c -1.384366,1.39203 -2.581111,2.53096 -2.659427,2.53096 -0.07832,0 -0.937477,-0.87406 -1.909239,-1.94236 z"
         style="opacity:1;fill:#00aad4;fill-opacity:1;stroke:#00aad4;stroke-width:0.02037418;stroke-miterlimit:4;stroke-dasharray:none;stroke-dashoffset:0;stroke-opacity:1" />
      <path
         inkscape:connector-curvature="0"
         id="path25405"
         d="m 70.676079,208.48698 c -3.425301,-2.27377 -7.508023,-5.47677 -10.479934,-8.22179 l -1.648066,-1.52224 2.589818,-2.59539 2.589819,-2.59539 2.23666,2.01441 c 3.447394,3.10484 7.868087,6.39984 11.64617,8.68056 0.342162,0.20655 0.168757,0.61816 -1.413407,3.35499 -0.99188,1.71576 -1.882433,3.11956 -1.979006,3.11956 -0.09658,0 -1.6905,-1.00562 -3.542054,-2.23471 z"
         style="opacity:1;fill:#00aad4;fill-opacity:1;stroke:#00aad4;stroke-width:0.02037418;stroke-miterlimit:4;stroke-dasharray:none;stroke-dashoffset:0;stroke-opacity:1" />
      <path
         inkscape:connector-curvature="0"
         id="path25407"
         d="m 89.11932,217.43726 c -6.557594,-2.20243 -14.383228,-5.9147 -14.091864,-6.6848 0.119343,-0.31544 3.103965,-5.5984 3.324789,-5.88508 0.03647,-0.0473 1.687406,0.71291 3.668754,1.68946 3.976452,1.95988 6.587551,3.01805 10.312435,4.17919 1.359654,0.42384 2.514078,0.80372 2.565386,0.8442 0.126916,0.10011 -1.705829,7.14791 -1.856793,7.14028 -0.066,-0.003 -1.831218,-0.5808 -3.922707,-1.28325 z"
         style="opacity:1;fill:#00aad4;fill-opacity:1;stroke:#00aad4;stroke-width:0.02037418;stroke-miterlimit:4;stroke-dasharray:none;stroke-dashoffset:0;stroke-opacity:1" />
      <path
         transform="scale(0.26458333)"
         inkscape:connector-curvature="0"
         id="path25409"
         d="m 401.19075,835.47496 c -17.4561,-1.68088 -46.86668,-7.42085 -46.88559,-9.1505 -0.006,-0.53685 1.49489,-6.68697 3.33503,-13.66693 2.2746,-8.62792 3.69313,-12.55753 4.43089,-12.27442 0.59685,0.22903 5.84902,1.42225 11.67148,2.65159 13.70948,2.89458 27.93349,4.72926 42.63992,5.49988 l 11.79044,0.61782 v 13.65951 13.65952 l -9.56583,-0.12026 c -5.2612,-0.0661 -13.09856,-0.46044 -17.41634,-0.87621 z"
         style="opacity:1;fill:#00aad4;fill-opacity:1;stroke:#00aad4;stroke-width:1.0999999;stroke-miterlimit:4;stroke-dasharray:none;stroke-dashoffset:0;stroke-opacity:1" />
      <path
         transform="scale(0.26458333)"
         inkscape:connector-curvature="0"
         id="path25411"
         d="m 429.95261,822.95213 v -13.79514 l 12.23536,-0.61232 c 14.27085,-0.71417 33.3358,-3.27714 46.27274,-6.2206 l 9.12173,-2.0754 0.99662,3.6514 c 4.91305,18.00038 5.94703,22.42261 5.37618,22.99347 -1.03725,1.03724 -24.51398,5.80325 -36.23768,7.35661 -5.84358,0.77425 -16.73125,1.65285 -24.19482,1.95243 l -13.57013,0.54469 z"
         style="opacity:1;fill:#00aad4;fill-opacity:1;stroke:#00aad4;stroke-width:1.0999999;stroke-miterlimit:4;stroke-dasharray:none;stroke-dashoffset:0;stroke-opacity:1" />
      <path
         inkscape:connector-curvature="0"
         id="path25413"
         d="m 134.00596,218.61796 c 0,-0.0458 -0.42266,-1.64806 -0.93926,-3.56061 -0.5166,-1.91255 -0.9139,-3.49109 -0.88289,-3.50786 0.031,-0.0168 1.06287,-0.32517 2.29303,-0.68532 3.26631,-0.95627 7.19707,-2.55582 10.97805,-4.46733 l 3.32632,-1.68165 1.7356,3.04527 c 0.95458,1.6749 1.76584,3.11708 1.80281,3.20486 0.10011,0.23773 -6.0423,3.33129 -9.01385,4.53973 -3.44985,1.40293 -9.29981,3.36108 -9.29981,3.11291 z"
         style="opacity:1;fill:#00aad4;fill-opacity:1;stroke:#00aad4;stroke-width:0.02037418;stroke-miterlimit:4;stroke-dasharray:none;stroke-dashoffset:0;stroke-opacity:1" />
      <path
         inkscape:connector-curvature="0"
         id="path25415"
         d="m 152.30789,209.85386 c -1.48954,-2.39683 -3.01659,-5.26919 -2.90085,-5.45645 0.0711,-0.11511 0.86692,-0.64747 1.76841,-1.18304 3.06776,-1.82252 7.90307,-5.58098 10.90819,-8.47888 l 1.35546,-1.3071 2.60219,2.58412 2.6022,2.58412 -1.96518,1.8835 c -3.34071,3.20189 -9.01175,7.50143 -12.70651,9.63353 l -1.10586,0.63816 z"
         style="opacity:1;fill:#00aad4;fill-opacity:1;stroke:#00aad4;stroke-width:0.02037418;stroke-miterlimit:4;stroke-dasharray:none;stroke-dashoffset:0;stroke-opacity:1" />
      <path
         inkscape:connector-curvature="0"
         id="path25417"
         d="m 166.39623,195.68321 -2.57227,-2.59224 1.58274,-1.67779 c 2.28134,-2.41834 5.13352,-6.05756 7.22495,-9.21862 0.99949,-1.51066 1.86175,-2.88015 1.91614,-3.0433 0.0653,-0.19601 1.18665,0.33156 3.30535,1.55513 3.74,2.1599 3.64416,1.46662 0.79233,5.73149 -2.37563,3.55271 -5.22561,7.16859 -7.67574,9.7385 l -2.00122,2.09906 z"
         style="opacity:1;fill:#00aad4;fill-opacity:1;stroke:#00aad4;stroke-width:0.02037418;stroke-miterlimit:4;stroke-dasharray:none;stroke-dashoffset:0;stroke-opacity:1" />
      <path
         inkscape:connector-curvature="0"
         id="path25419"
         d="m 180.26954,181.55193 c -0.38848,-0.24111 -1.73444,-1.03725 -2.99104,-1.7692 l -2.28473,-1.33081 1.27101,-2.40586 c 1.71404,-3.24448 3.26606,-6.93498 4.52625,-10.76288 0.57532,-1.74757 1.08999,-3.22134 1.1437,-3.27506 0.21533,-0.21532 6.92829,1.73743 6.92829,2.01539 0,0.66769 -2.40744,7.4899 -3.64281,10.323 -1.61019,3.69269 -3.68507,7.65025 -4.00892,7.64652 -0.12949,-0.002 -0.55328,-0.19999 -0.94175,-0.4411 z"
         style="opacity:1;fill:#00aad4;fill-opacity:1;stroke:#00aad4;stroke-width:0.02037418;stroke-miterlimit:4;stroke-dasharray:none;stroke-dashoffset:0;stroke-opacity:1" />
      <path
         transform="scale(0.26458333)"
         inkscape:connector-curvature="0"
         id="path25421"
         d="m 699.73389,613.27047 c -10.67032,-2.91152 -11.81446,-3.41391 -11.4537,-5.02924 4.59507,-20.57454 7.73592,-41.75346 7.73592,-52.16363 0,-2.74882 0.25464,-6.85568 0.56587,-9.12636 l 0.56588,-4.12849 H 710.94 724.73215 l -0.60831,11.34551 c -0.81267,15.15709 -2.87329,32.2179 -5.4081,44.77617 -3.12062,15.46058 -3.84729,17.74885 -5.60442,17.64804 -0.83761,-0.0481 -6.85746,-1.54295 -13.37743,-3.322 z"
         style="opacity:1;fill:#00aad4;fill-opacity:1;stroke:#00aad4;stroke-width:1.0999999;stroke-miterlimit:4;stroke-dasharray:none;stroke-dashoffset:0;stroke-opacity:1" />
      <path
         transform="scale(0.26458333)"
         inkscape:connector-curvature="0"
         id="path25423"
         d="m 696.9028,540.8206 c -0.002,-0.12236 -0.4117,-6.62934 -0.91105,-14.45998 -0.99117,-15.54344 -3.28631,-32.03323 -6.1827,-44.42059 -1.0207,-4.36534 -1.54328,-8.20437 -1.16129,-8.5312 0.38198,-0.32682 5.69989,-1.88343 11.81757,-3.45914 6.11768,-1.57571 11.8029,-3.06272 12.63381,-3.30446 1.78706,-0.51992 2.50705,1.7714 5.72064,18.20548 2.62736,13.4361 4.45309,28.75794 5.29087,44.40191 l 0.63142,11.79044 h -13.91806 c -7.65493,0 -13.91947,-0.10011 -13.92121,-0.22246 z"
         style="opacity:1;fill:#00aad4;fill-opacity:1;stroke:#00aad4;stroke-width:1.0999999;stroke-miterlimit:4;stroke-dasharray:none;stroke-dashoffset:0;stroke-opacity:1" />
      <path
         inkscape:connector-curvature="0"
         id="path25425"
         d="m 181.55321,123.79816 c -1.01574,-3.79157 -3.5054,-9.95596 -5.54741,-13.73539 l -1.0226,-1.89267 3.11404,-1.80976 c 2.86423,-1.66457 3.13925,-1.77716 3.42822,-1.40346 0.56739,0.73377 3.34902,6.42134 4.38812,8.97236 1.23131,3.0229 3.07647,8.69008 2.89007,8.87648 -0.0739,0.0739 -1.49454,0.50082 -3.15703,0.94877 -1.66249,0.44796 -3.20258,0.86886 -3.42242,0.93535 -0.30889,0.0934 -0.46137,-0.1092 -0.67099,-0.89168 z"
         style="opacity:1;fill:#00aad4;fill-opacity:1;stroke:#00aad4;stroke-width:0.02037418;stroke-miterlimit:4;stroke-dasharray:none;stroke-dashoffset:0;stroke-opacity:1" />
      <path
         inkscape:connector-curvature="0"
         id="path25427"
         d="m 172.87527,104.85955 c -2.07996,-3.24903 -4.16216,-5.97076 -6.96936,-9.109954 l -2.07017,-2.315001 2.56639,-2.585358 2.56638,-2.58536 1.50645,1.604227 c 3.2986,3.512698 7.25264,8.681762 9.64163,12.604396 l 0.96387,1.58265 -1.70037,0.98017 c -0.9352,0.5391 -2.29694,1.33666 -3.02608,1.77235 -0.72914,0.43569 -1.4178,0.78847 -1.53035,0.78395 -0.11255,-0.005 -0.98933,-1.23395 -1.94839,-2.73207 z"
         style="opacity:1;fill:#00aad4;fill-opacity:1;stroke:#00aad4;stroke-width:0.02037418;stroke-miterlimit:4;stroke-dasharray:none;stroke-dashoffset:0;stroke-opacity:1" />
      <path
         inkscape:connector-curvature="0"
         id="path25429"
         d="m 162.02309,91.786161 c -3.51053,-3.24005 -7.43543,-6.252945 -11.00471,-8.447608 -0.9377,-0.576567 -1.70582,-1.140394 -1.70693,-1.252945 -0.001,-0.112554 0.35446,-0.801209 0.79015,-1.530348 0.43569,-0.729138 1.23324,-2.090875 1.77234,-3.026082 l 0.98018,-1.700373 1.58265,0.963877 c 3.87619,2.360707 8.32588,5.743535 12.25569,9.317251 l 1.96184,1.784067 -2.54641,2.554338 c -1.40054,1.404887 -2.6012,2.54953 -2.66816,2.543651 -0.0669,-0.0059 -0.70444,-0.5485 -1.41664,-1.205828 z"
         style="opacity:1;fill:#00aad4;fill-opacity:1;stroke:#00aad4;stroke-width:0.02037418;stroke-miterlimit:4;stroke-dasharray:none;stroke-dashoffset:0;stroke-opacity:1" />
      <path
         inkscape:connector-curvature="0"
         id="path25431"
         d="m 146.94726,80.955038 c -2.71086,-1.477875 -7.57293,-3.569581 -10.78769,-4.640961 -1.59957,-0.533088 -3.02986,-0.970876 -3.17841,-0.972857 -0.84434,-0.01127 -0.83721,-0.367393 0.0747,-3.732565 0.50197,-1.852414 0.97328,-3.428621 1.04734,-3.502686 0.18669,-0.186687 5.85135,1.657361 8.87683,2.889721 2.54578,1.036968 8.23398,3.818332 8.97421,4.388122 0.37601,0.289441 0.2677,0.555091 -1.37607,3.374864 -0.98132,1.683382 -1.80418,3.081859 -1.82857,3.107727 -0.0244,0.02588 -0.83544,-0.384246 -1.80234,-0.911365 z"
         style="opacity:1;fill:#00aad4;fill-opacity:1;stroke:#00aad4;stroke-width:0.02037418;stroke-miterlimit:4;stroke-dasharray:none;stroke-dashoffset:0;stroke-opacity:1" />
      <path
         inkscape:connector-curvature="0"
         id="path25433"
         d="m 129.2972,74.392038 c -3.41863,-0.848024 -11.40726,-1.813899 -15.48004,-1.871634 -0.0324,-5.29e-4 -0.0589,-1.657953 -0.0589,-3.68332 v -3.682486 l 3.11955,0.16039 c 5.17722,0.266187 11.87723,1.226846 15.65935,2.245265 0.93245,0.251084 0.99096,0.314105 0.84269,0.907642 -1.07691,4.310994 -1.69953,6.293109 -1.98688,6.325248 -0.18151,0.02029 -1.12462,-0.160194 -2.09581,-0.401105 z"
         style="opacity:1;fill:#00aad4;fill-opacity:1;stroke:#00aad4;stroke-width:0.02037418;stroke-miterlimit:4;stroke-dasharray:none;stroke-dashoffset:0;stroke-opacity:1" />
      <path
         inkscape:connector-curvature="0"
         id="path25441"
         d="m 97.420167,81.995948 c -0.06855,-0.226607 -0.45053,-1.630407 -0.848849,-3.119554 -0.398317,-1.489143 -0.777007,-2.882566 -0.841531,-3.096492 -0.09643,-0.319718 0.271877,-0.478981 2.069033,-0.894686 3.3227,-0.768583 7.76768,-1.406965 10.77984,-1.548186 1.48915,-0.06982 3.15781,-0.174334 3.70815,-0.232259 l 1.00061,-0.105317 v 3.726193 3.726196 l -3.11955,0.142962 c -3.35181,0.153604 -6.73376,0.602763 -10.14607,1.347512 -2.579389,0.562959 -2.448378,0.560258 -2.601633,0.05363 z"
         style="opacity:1;fill:#00aad4;fill-opacity:1;stroke:#00aad4;stroke-width:0.02037418;stroke-miterlimit:4;stroke-dasharray:none;stroke-dashoffset:0;stroke-opacity:1" />
      <path
         inkscape:connector-curvature="0"
         id="path25443"
         d="m 80.524333,85.565709 c -1.298762,-2.259015 -1.726739,-3.197476 -1.530347,-3.355723 0.555667,-0.447744 5.707444,-2.927927 8.129183,-3.913577 3.347725,-1.362527 7.829994,-2.786795 8.031734,-2.552134 0.08943,0.104029 0.503711,1.513483 0.920617,3.132119 0.416907,1.618637 0.810591,3.123624 0.874853,3.344418 0.09422,0.323718 -0.216051,0.50123 -1.602597,0.916872 -2.89783,0.868677 -6.748822,2.428353 -9.959763,4.033768 l -3.060695,1.530295 z"
         style="opacity:1;fill:#00aad4;fill-opacity:1;stroke:#00aad4;stroke-width:0.02037418;stroke-miterlimit:4;stroke-dasharray:none;stroke-dashoffset:0;stroke-opacity:1" />
      <path
         inkscape:connector-curvature="0"
         id="path25445"
         d="m 66.771853,96.031742 -2.573264,-2.596287 2.001224,-1.885911 c 2.324217,-2.190287 7.259217,-5.967555 10.087613,-7.721092 1.080751,-0.670038 1.988526,-1.184296 2.017281,-1.142791 0.02875,0.0415 0.85277,1.465038 1.831152,3.163409 l 1.778873,3.087944 -2.854402,1.883606 c -3.065446,2.022874 -5.869752,4.210169 -8.237399,6.424988 l -1.477815,1.382421 z"
         style="opacity:1;fill:#00aad4;fill-opacity:1;stroke:#00aad4;stroke-width:0.02037418;stroke-miterlimit:4;stroke-dasharray:none;stroke-dashoffset:0;stroke-opacity:1" />
      <path
         inkscape:connector-curvature="0"
         id="path25447"
         d="m 56.085012,109.85028 c -1.613667,-0.94895 -2.96618,-1.82209 -3.005585,-1.9403 -0.11276,-0.33828 3.418936,-5.59362 5.562026,-8.276582 1.069168,-1.338503 2.671548,-3.192578 3.560845,-4.120165 l 1.616903,-1.686523 2.601248,2.584122 2.601249,2.584122 -1.139291,1.182886 c -2.640425,2.74146 -6.303581,7.51352 -7.911232,10.30611 -0.354095,0.61508 -0.7132,1.11234 -0.798015,1.10501 -0.08481,-0.007 -1.474478,-0.78974 -3.088148,-1.73868 z"
         style="opacity:1;fill:#00aad4;fill-opacity:1;stroke:#00aad4;stroke-width:0.02037418;stroke-miterlimit:4;stroke-dasharray:none;stroke-dashoffset:0;stroke-opacity:1" />
      <path
         inkscape:connector-curvature="0"
         id="path25449"
         d="m 49.310398,125.84193 -3.587168,-0.94991 1.274514,-3.76075 c 0.700982,-2.06842 1.815904,-4.97325 2.477601,-6.45519 1.263255,-2.82918 3.007439,-6.13449 3.237116,-6.13449 0.212286,0 5.952897,3.34038 6.072116,3.53328 0.05867,0.0949 -0.463098,1.27232 -1.159486,2.6164 -1.439908,2.77915 -3.113789,6.88268 -4.073999,9.98744 l -0.653526,2.11312 z"
         style="opacity:1;fill:#00aad4;fill-opacity:1;stroke:#00aad4;stroke-width:0.02037418;stroke-miterlimit:4;stroke-dasharray:none;stroke-dashoffset:0;stroke-opacity:1" />
      <path
         inkscape:connector-curvature="0"
         id="path25451"
         d="m 43.455373,140.03142 c 0.264078,-5.03962 1.63168,-13.74183 2.261663,-14.39121 0.146307,-0.15081 6.568448,1.33053 7.000637,1.61478 0.03055,0.0201 -0.20429,1.19461 -0.521869,2.61004 -0.653206,2.91132 -1.197981,7.02061 -1.425805,10.75499 l -0.154406,2.53095 h -3.661844 -3.661841 z"
         style="opacity:1;fill:#00aad4;fill-opacity:1;stroke:#00aad4;stroke-width:0.02037418;stroke-miterlimit:4;stroke-dasharray:none;stroke-dashoffset:0;stroke-opacity:1" />
      <path
         inkscape:connector-curvature="0"
         id="path25453"
         d="M 45.591298,160.96926 C 44.844586,158.85508 43.682621,151.11814 43.4545,146.7414 l -0.162592,-3.11955 h 3.662526 3.662527 l 0.148452,2.29552 c 0.229471,3.54832 0.801749,7.92122 1.409629,10.77129 0.303805,1.4244 0.523129,2.62203 0.487389,2.6614 -0.03574,0.0394 -1.619263,0.48238 -3.518937,0.98447 -2.444388,0.64606 -3.482668,0.83159 -3.552196,0.63473 z"
         style="opacity:1;fill:#00aad4;fill-opacity:1;stroke:#00aad4;stroke-width:0.02037418;stroke-miterlimit:4;stroke-dasharray:none;stroke-dashoffset:0;stroke-opacity:1" />
      <path
         inkscape:connector-curvature="0"
         id="path25455"
         d="m 51.187964,175.46339 c -0.782059,-1.52072 -1.849927,-3.77765 -2.373046,-5.01539 -1.262978,-2.98834 -2.954977,-8.11775 -2.805715,-8.50573 0.101914,-0.2649 6.736177,-2.21873 6.880791,-2.02643 0.02852,0.0379 0.343254,1.02248 0.699415,2.18789 0.85416,2.79498 2.380168,6.5071 4.015208,9.76728 0.728999,1.45357 1.292477,2.67485 1.252175,2.71395 -0.09152,0.0888 -3.161088,1.89192 -4.925875,2.89358 l -1.32103,0.74979 z"
         style="opacity:1;fill:#00aad4;fill-opacity:1;stroke:#00aad4;stroke-width:0.02037418;stroke-miterlimit:4;stroke-dasharray:none;stroke-dashoffset:0;stroke-opacity:1" />
      <path
         inkscape:connector-curvature="0"
         id="path25457"
         d="m 61.481671,190.34751 c -2.669937,-2.98718 -5.797222,-7.11587 -7.394559,-9.7624 -0.948103,-1.57085 -1.101426,-1.96758 -0.824035,-2.13224 0.187442,-0.11126 1.608548,-0.93215 3.158014,-1.8242 l 2.817209,-1.6219 1.791581,2.73056 c 2.024044,3.08487 4.101283,5.75769 6.277581,8.07747 0.815195,0.86893 1.482169,1.66534 1.482169,1.7698 0,0.10445 -1.143153,1.32952 -2.540341,2.72237 l -2.540344,2.53247 z"
         style="opacity:1;fill:#00aad4;fill-opacity:1;stroke:#00aad4;stroke-width:0.02037418;stroke-miterlimit:4;stroke-dasharray:none;stroke-dashoffset:0;stroke-opacity:1" />
      <path
         inkscape:connector-curvature="0"
         id="path25459"
         d="m 76.098029,202.68058 c -2.679782,-1.64916 -6.52616,-4.57029 -9.54088,-7.24583 l -2.501575,-2.22013 2.539593,-2.54749 c 1.396775,-1.40112 2.612511,-2.54749 2.701636,-2.54749 0.08913,0 0.904939,0.68175 1.812917,1.515 2.50253,2.29657 5.04157,4.26284 8.072475,6.25146 l 2.740826,1.79828 -1.795309,3.1048 c -0.987417,1.70764 -1.854403,3.1048 -1.926635,3.1048 -0.07223,0 -1.018603,-0.54603 -2.103048,-1.2134 z"
         style="opacity:1;fill:#00aad4;fill-opacity:1;stroke:#00aad4;stroke-width:0.02037418;stroke-miterlimit:4;stroke-dasharray:none;stroke-dashoffset:0;stroke-opacity:1" />
      <path
         inkscape:connector-curvature="0"
         id="path25461"
         d="m 91.62712,210.04011 c -3.474468,-1.16146 -6.711219,-2.53429 -10.175144,-4.31565 -2.474013,-1.2723 -2.73408,-1.46505 -2.518974,-1.86698 0.342165,-0.63934 3.310255,-5.71712 3.393112,-5.8049 0.03799,-0.0402 1.376257,0.58211 2.973935,1.383 3.244498,1.62641 7.167258,3.21024 9.917502,4.00422 1.003554,0.28972 1.822534,0.58989 1.819957,0.66705 -0.0026,0.0772 -0.406564,1.62355 -0.897752,3.43642 -0.738405,2.7253 -0.972042,3.30529 -1.349084,3.34903 -0.250809,0.0291 -1.674408,-0.35439 -3.163552,-0.85219 z"
         style="opacity:1;fill:#00aad4;fill-opacity:1;stroke:#00aad4;stroke-width:0.02037418;stroke-miterlimit:4;stroke-dasharray:none;stroke-dashoffset:0;stroke-opacity:1" />
      <path
         inkscape:connector-curvature="0"
         id="path25463"
         d="m 108.46094,213.38153 c -2.99091,-0.20461 -11.985968,-1.69657 -12.634678,-2.09564 -0.13412,-0.0825 1.534062,-6.8585 1.732946,-7.03905 0.03937,-0.0357 1.236999,0.18358 2.661402,0.48738 2.85007,0.60789 7.22297,1.18016 10.77129,1.40963 l 2.29552,0.14846 v 3.62732 3.62731 l -1.82465,-0.0424 c -1.00355,-0.0233 -2.35437,-0.0787 -3.00183,-0.12297 z"
         style="opacity:1;fill:#00aad4;fill-opacity:1;stroke:#00aad4;stroke-width:0.02037418;stroke-miterlimit:4;stroke-dasharray:none;stroke-dashoffset:0;stroke-opacity:1" />
      <path
         inkscape:connector-curvature="0"
         id="path25465"
         d="m 113.7583,209.95552 v -3.66184 l 2.53096,-0.15441 c 3.73437,-0.22783 7.84366,-0.7726 10.75498,-1.42581 1.41543,-0.31758 2.5878,-0.55242 2.60527,-0.52187 0.30413,0.53188 1.7667,6.85793 1.61872,7.00147 -0.64869,0.62924 -9.35417,1.99693 -14.39038,2.26084 l -3.11955,0.16346 z"
         style="opacity:1;fill:#00aad4;fill-opacity:1;stroke:#00aad4;stroke-width:0.02037418;stroke-miterlimit:4;stroke-dasharray:none;stroke-dashoffset:0;stroke-opacity:1" />
      <path
         inkscape:connector-curvature="0"
         id="path25467"
         d="m 131.0537,207.55948 -0.94017,-3.56213 2.24051,-0.69526 c 3.12755,-0.97052 7.48183,-2.74999 10.09377,-4.12504 1.21456,-0.63941 2.29501,-1.10896 2.40101,-1.04344 0.20631,0.1275 3.51887,5.84195 3.51887,6.07035 0,0.21447 -3.66036,2.14636 -6.12139,3.23079 -2.56227,1.12903 -5.63282,2.2699 -8.36349,3.10747 l -1.88894,0.57938 z"
         style="opacity:1;fill:#00aad4;fill-opacity:1;stroke:#00aad4;stroke-width:0.02037418;stroke-miterlimit:4;stroke-dasharray:none;stroke-dashoffset:0;stroke-opacity:1" />
      <path
         inkscape:connector-curvature="0"
         id="path25469"
         d="m 147.87319,202.18706 c -0.54237,-0.93881 -1.35276,-2.34076 -1.80086,-3.11545 -0.73863,-1.27695 -0.77736,-1.43089 -0.41466,-1.64806 3.38464,-2.02657 7.93634,-5.45244 10.78603,-8.11819 l 1.49233,-1.396 2.57327,2.59035 2.57326,2.59035 -1.68652,1.61691 c -2.41047,2.31097 -6.11033,5.21404 -9.36207,7.3459 -1.54455,1.01261 -2.8907,1.84111 -2.99145,1.84111 -0.10076,0 -0.62695,-0.76811 -1.16933,-1.70692 z"
         style="opacity:1;fill:#00aad4;fill-opacity:1;stroke:#00aad4;stroke-width:0.02037418;stroke-miterlimit:4;stroke-dasharray:none;stroke-dashoffset:0;stroke-opacity:1" />
      <path
         inkscape:connector-curvature="0"
         id="path25471"
         d="m 160.80136,190.062 -2.5086,-2.53096 1.6533,-1.76578 c 1.95226,-2.08509 5.28224,-6.44466 6.86441,-8.98678 l 1.12396,-1.80592 3.10686,1.78986 c 1.70877,0.98442 3.14059,1.81317 3.18183,1.84165 0.13795,0.0953 -2.3639,3.95743 -4.02889,6.21943 -2.32945,3.16474 -6.33263,7.76946 -6.75448,7.76946 -0.0714,0 -1.25865,-1.13893 -2.63839,-2.53096 z"
         style="opacity:1;fill:#00aad4;fill-opacity:1;stroke:#00aad4;stroke-width:0.02037418;stroke-miterlimit:4;stroke-dasharray:none;stroke-dashoffset:0;stroke-opacity:1" />
      <path
         inkscape:connector-curvature="0"
         id="path25473"
         d="m 171.29609,176.36546 -3.08749,-1.80116 1.5298,-3.05187 c 1.60251,-3.19691 3.16184,-7.04419 4.03319,-9.95094 0.41564,-1.38654 0.59315,-1.69681 0.91687,-1.60259 0.22079,0.0643 1.72578,0.45794 3.34441,0.87485 1.61864,0.4169 3.0281,0.83118 3.13213,0.92062 0.23466,0.20174 -1.18961,4.684 -2.55214,8.03173 -1.0734,2.63735 -3.38327,7.35757 -3.91525,8.00081 -0.28192,0.34089 -0.62969,0.19556 -3.40152,-1.42145 z"
         style="opacity:1;fill:#00aad4;fill-opacity:1;stroke:#00aad4;stroke-width:0.02037418;stroke-miterlimit:4;stroke-dasharray:none;stroke-dashoffset:0;stroke-opacity:1" />
      <path
         inkscape:connector-curvature="0"
         id="path25475"
         d="m 177.95532,160.33778 c -1.79078,-0.49527 -3.30685,-0.95137 -3.36903,-1.01355 -0.0622,-0.0622 0.15133,-1.36928 0.47446,-2.90466 0.70686,-3.35861 1.32338,-8.46915 1.32377,-10.97308 l 2.7e-4,-1.82464 h 3.7625 3.76251 l -0.10532,1.00061 c -0.0579,0.55034 -0.16244,2.219 -0.23226,3.70815 -0.18985,4.04925 -1.71567,12.99362 -2.20547,12.92838 -0.0855,-0.0114 -1.62067,-0.42593 -3.41145,-0.92121 z"
         style="opacity:1;fill:#00aad4;fill-opacity:1;stroke:#00aad4;stroke-width:0.02037418;stroke-miterlimit:4;stroke-dasharray:none;stroke-dashoffset:0;stroke-opacity:1" />
      <path
         inkscape:connector-curvature="0"
         id="path25479"
         d="m 176.38481,141.20717 c 0,-2.47862 -0.56381,-7.31247 -1.21117,-10.38405 -0.27669,-1.31286 -0.54955,-2.65354 -0.60633,-2.97929 -0.10087,-0.57859 -0.0238,-0.61332 3.33643,-1.50353 1.89182,-0.50119 3.49176,-0.85916 3.55543,-0.79549 0.20578,0.20578 1.24794,5.17438 1.61879,7.71777 0.19825,1.35965 0.41874,3.58454 0.48997,4.94419 0.0712,1.35966 0.18025,3.02833 0.24226,3.70815 l 0.11275,1.23605 h -3.76907 -3.76906 z"
         style="opacity:1;fill:#00aad4;fill-opacity:1;stroke:#00aad4;stroke-width:0.02037418;stroke-miterlimit:4;stroke-dasharray:none;stroke-dashoffset:0;stroke-opacity:1" />
      <path
         inkscape:connector-curvature="0"
         id="path25481"
         d="m 174.1593,126.37602 c -1.59002,-5.09823 -3.00752,-8.65814 -4.81352,-12.08867 l -1.15457,-2.19314 3.05685,-1.77631 c 1.68127,-0.97697 3.14382,-1.77631 3.25011,-1.77631 0.27188,0 3.32819,6.23898 4.44147,9.06658 0.98163,2.49321 2.49226,7.16427 2.35376,7.2781 -0.14399,0.11835 -6.44681,1.78404 -6.75062,1.78404 -0.16043,0 -0.33299,-0.13243 -0.38348,-0.29429 z"
         style="opacity:1;fill:#00aad4;fill-opacity:1;stroke:#00aad4;stroke-width:0.02037418;stroke-miterlimit:4;stroke-dasharray:none;stroke-dashoffset:0;stroke-opacity:1" />
      <path
         inkscape:connector-curvature="0"
         id="path25483"
         d="m 166.20126,108.95477 c -1.87008,-2.83332 -4.10304,-5.72042 -6.46075,-8.35341 l -1.45855,-1.628846 2.59391,-2.572901 2.59391,-2.572903 1.40648,1.530347 c 3.07205,3.342608 7.064,8.605753 8.76907,11.561483 l 0.62561,1.08448 -3.00437,1.71725 c -1.6524,0.94448 -3.07457,1.75484 -3.16036,1.80079 -0.0858,0.0459 -0.94302,-1.10888 -1.90495,-2.56629 z"
         style="opacity:1;fill:#00aad4;fill-opacity:1;stroke:#00aad4;stroke-width:0.02037418;stroke-miterlimit:4;stroke-dasharray:none;stroke-dashoffset:0;stroke-opacity:1" />
      <path
         inkscape:connector-curvature="0"
         id="path25485"
         d="m 156.01123,96.934074 c -2.56584,-2.316363 -5.39761,-4.499128 -8.29315,-6.39247 -1.32846,-0.868659 -2.37735,-1.650289 -2.33086,-1.736956 0.0465,-0.08667 0.85485,-1.505288 1.79634,-3.152494 1.59973,-2.798845 1.74462,-2.977867 2.21314,-2.734487 2.49682,1.29704 8.7878,6.014632 12.15551,9.115401 l 1.53035,1.409041 -2.58982,2.599864 -2.58982,2.599865 z"
         style="opacity:1;fill:#00aad4;fill-opacity:1;stroke:#00aad4;stroke-width:0.02037418;stroke-miterlimit:4;stroke-dasharray:none;stroke-dashoffset:0;stroke-opacity:1" />
      <path
         inkscape:connector-curvature="0"
         id="path25489"
         d="m 143.07033,87.797033 c -2.47228,-1.362514 -6.22995,-2.965344 -9.61384,-4.100774 -1.66187,-0.557626 -3.08267,-1.074952 -3.15734,-1.149618 -0.18378,-0.183784 1.6383,-6.966378 1.87146,-6.966378 0.46047,0 6.66176,2.155817 8.78078,3.052551 2.8655,1.212641 7.4163,3.542202 7.4163,3.796424 0,0.190571 -3.24539,5.866849 -3.50437,6.129234 -0.0797,0.08076 -0.88655,-0.261887 -1.79299,-0.761439 z"
         style="opacity:1;fill:#00aad4;fill-opacity:1;stroke:#00aad4;stroke-width:0.02037418;stroke-miterlimit:4;stroke-dasharray:none;stroke-dashoffset:0;stroke-opacity:1" />
      <path
         inkscape:connector-curvature="0"
         id="path25491"
         d="m 126.35423,81.797918 c -3.21495,-0.690795 -8.08496,-1.272794 -10.65357,-1.273172 l -1.94236,-2.65e-4 v -3.755916 -3.755917 l 1.11833,0.09968 c 0.61508,0.05482 2.26763,0.155408 3.67234,0.223515 1.4047,0.06811 3.68256,0.288557 5.06191,0.489886 2.57339,0.375611 7.54673,1.417535 7.75359,1.624389 0.0637,0.06367 -0.29209,1.65523 -0.79057,3.536809 -0.68284,2.577476 -0.99553,3.414451 -1.26809,3.394268 -0.19897,-0.01474 -1.52718,-0.277201 -2.95158,-0.58326 z"
         style="opacity:1;fill:#00aad4;fill-opacity:1;stroke:#00aad4;stroke-width:0.02037418;stroke-miterlimit:4;stroke-dasharray:none;stroke-dashoffset:0;stroke-opacity:1" />
      <path
         inkscape:connector-curvature="0"
         id="path25493"
         d="m 98.617878,86.50204 c -0.492617,-1.891969 -0.852445,-3.483165 -0.799616,-3.535994 0.05283,-0.05283 1.357357,-0.356902 2.898958,-0.675717 3.42821,-0.708988 8.29009,-1.294993 10.74411,-1.294993 h 1.82609 v 3.602078 3.602077 l -3.70815,0.284779 c -2.03948,0.156628 -4.97952,0.546499 -6.53341,0.86638 -1.55389,0.319882 -2.98434,0.58379 -3.178784,0.586468 -0.258403,0.0035 -0.594537,-0.920761 -1.249198,-3.435078 z"
         style="opacity:1;fill:#00aad4;fill-opacity:1;stroke:#00aad4;stroke-width:0.02037418;stroke-miterlimit:4;stroke-dasharray:none;stroke-dashoffset:0;stroke-opacity:1" />
      <path
         inkscape:connector-curvature="0"
         id="path25495"
         d="m 84.459241,92.354026 c -1.408721,-2.461678 -1.749611,-3.227837 -1.505599,-3.383873 0.933162,-0.596723 4.15266,-2.173875 6.319097,-3.095572 2.365944,-1.006575 7.753173,-2.857439 7.893968,-2.71209 0.07435,0.07675 1.669978,5.943362 1.797037,6.607111 0.06496,0.339357 -0.420288,0.585301 -2.627863,1.331905 -3.20594,1.084254 -6.078273,2.295498 -8.382799,3.534973 l -1.672815,0.899713 z"
         style="opacity:1;fill:#00aad4;fill-opacity:1;stroke:#00aad4;stroke-width:0.02037418;stroke-miterlimit:4;stroke-dasharray:none;stroke-dashoffset:0;stroke-opacity:1" />
      <path
         inkscape:connector-curvature="0"
         id="path25497"
         d="m 72.255811,101.53093 -2.529462,-2.537326 1.120847,-1.075475 c 2.719829,-2.609729 6.384091,-5.432595 9.820277,-7.565319 1.326536,-0.823338 1.445472,-0.855692 1.730986,-0.470876 0.390904,0.526857 3.342709,5.656373 3.342709,5.80881 0,0.06291 -0.768115,0.609656 -1.706925,1.214999 -2.35304,1.517234 -5.134898,3.642247 -7.270909,5.554107 -0.988335,0.88463 -1.837719,1.60841 -1.887519,1.60841 -0.0498,0 -1.228801,-1.14179 -2.620004,-2.53733 z"
         style="opacity:1;fill:#00aad4;fill-opacity:1;stroke:#00aad4;stroke-width:0.02037418;stroke-miterlimit:4;stroke-dasharray:none;stroke-dashoffset:0;stroke-opacity:1" />
      <path
         inkscape:connector-curvature="0"
         id="path25499"
         d="m 62.993293,113.81825 c -1.667832,-0.95953 -3.067047,-1.84847 -3.109364,-1.97543 -0.203412,-0.61023 4.830664,-7.5223 7.774902,-10.67539 l 1.719395,-1.841353 2.562492,2.583143 2.562493,2.58315 -1.743287,1.96575 c -2.192181,2.47192 -3.524975,4.21278 -5.319255,6.94786 l -1.414954,2.15686 z"
         style="opacity:1;fill:#00aad4;fill-opacity:1;stroke:#00aad4;stroke-width:0.02037418;stroke-miterlimit:4;stroke-dasharray:none;stroke-dashoffset:0;stroke-opacity:1" />
      <path
         inkscape:connector-curvature="0"
         id="path25501"
         d="m 56.857863,127.88494 c -1.706563,-0.47381 -3.177051,-0.93699 -3.267753,-1.02929 -0.423436,-0.43091 2.302232,-7.6654 4.525836,-12.01252 l 1.301697,-2.5448 0.742407,0.44609 c 0.408324,0.24534 1.801879,1.05882 3.09679,1.80772 1.294907,0.7489 2.38216,1.38168 2.416116,1.40619 0.03396,0.0245 -0.677595,1.57066 -1.581224,3.4359 -0.903631,1.86525 -2.089663,4.74218 -2.635625,6.39319 -0.545966,1.65101 -1.105779,2.99219 -1.244032,2.98041 -0.138252,-0.0118 -1.647647,-0.40908 -3.354212,-0.88289 z"
         style="opacity:1;fill:#00aad4;fill-opacity:1;stroke:#00aad4;stroke-width:0.02037418;stroke-miterlimit:4;stroke-dasharray:none;stroke-dashoffset:0;stroke-opacity:1" />
      <path
         inkscape:connector-curvature="0"
         id="path25503"
         d="m 51.245849,140.73773 c 0.273368,-4.34568 1.007994,-9.46609 1.787282,-12.45755 l 0.224615,-0.86224 3.436858,0.90837 c 1.890273,0.49961 3.481319,0.95284 3.535662,1.00718 0.05434,0.0543 -0.112491,1.04739 -0.37074,2.20677 -0.657987,2.95398 -1.193728,7.27209 -1.193728,9.62155 v 1.98916 H 54.87992 51.094042 Z"
         style="opacity:1;fill:#00aad4;fill-opacity:1;stroke:#00aad4;stroke-width:0.02037418;stroke-miterlimit:4;stroke-dasharray:none;stroke-dashoffset:0;stroke-opacity:1" />
      <path
         inkscape:connector-curvature="0"
         id="path25505"
         d="m 53.006016,158.18458 c -0.803897,-2.98544 -1.456293,-7.54113 -1.756722,-12.26721 l -0.145923,-2.29552 h 3.781213 3.781214 v 1.83359 c 0,2.15999 0.508169,6.4588 1.077415,9.11428 0.637452,2.97365 0.838335,2.67208 -2.372326,3.56141 -4.429974,1.22709 -4.050099,1.22244 -4.364871,0.0534 z"
         style="opacity:1;fill:#00aad4;fill-opacity:1;stroke:#00aad4;stroke-width:0.02037418;stroke-miterlimit:4;stroke-dasharray:none;stroke-dashoffset:0;stroke-opacity:1" />
      <path
         inkscape:connector-curvature="0"
         id="path25507"
         d="m 58.592029,172.7573 c -1.833779,-3.28827 -5.481788,-12.59278 -5.09061,-12.98397 0.06885,-0.0688 1.6563,-0.53601 3.527671,-1.03815 l 3.402492,-0.91298 1.192858,3.43803 c 0.656071,1.89092 1.819849,4.70834 2.58617,6.26094 0.766323,1.55259 1.425807,2.88897 1.465524,2.96973 0.05903,0.12003 -5.927905,3.73789 -6.185567,3.73789 -0.04286,0 -0.447204,-0.66217 -0.898538,-1.47149 z"
         style="opacity:1;fill:#00aad4;fill-opacity:1;stroke:#00aad4;stroke-width:0.02037418;stroke-miterlimit:4;stroke-dasharray:none;stroke-dashoffset:0;stroke-opacity:1" />
      <path
         inkscape:connector-curvature="0"
         id="path25509"
         d="m 67.21253,184.98178 c -1.061644,-1.18772 -2.3841,-2.74221 -2.938794,-3.45441 -1.451768,-1.864 -4.431971,-6.36255 -4.423833,-6.67767 0.0058,-0.22648 5.782765,-3.6816 6.155592,-3.6816 0.07006,0 0.523965,0.6425 1.008669,1.42778 1.342853,2.17559 4.106291,5.79024 5.896289,7.7125 l 1.605368,1.72399 -2.564781,2.57275 c -1.410632,1.41502 -2.619563,2.56453 -2.686516,2.55447 -0.06696,-0.0101 -0.990351,-0.99008 -2.051994,-2.17781 z"
         style="opacity:1;fill:#00aad4;fill-opacity:1;stroke:#00aad4;stroke-width:0.02037418;stroke-miterlimit:4;stroke-dasharray:none;stroke-dashoffset:0;stroke-opacity:1" />
      <path
         inkscape:connector-curvature="0"
         id="path25511"
         d="m 79.210606,195.34172 c -2.996975,-2.00235 -5.89235,-4.28781 -8.018214,-6.32916 l -1.499761,-1.44015 2.594255,-2.59426 2.594255,-2.59425 1.68941,1.59371 c 1.845948,1.74137 5.494168,4.52954 7.742835,5.91749 0.785281,0.48471 1.427782,0.93861 1.427782,1.00867 0,0.37283 -3.45512,6.14975 -3.681603,6.15559 -0.147264,0.004 -1.429295,-0.76913 -2.848959,-1.71764 z"
         style="opacity:1;fill:#00aad4;fill-opacity:1;stroke:#00aad4;stroke-width:0.02037418;stroke-miterlimit:4;stroke-dasharray:none;stroke-dashoffset:0;stroke-opacity:1" />
      <path
         inkscape:connector-curvature="0"
         id="path25513"
         d="m 93.275186,202.27842 c -1.748128,-0.61532 -4.184912,-1.57381 -5.415073,-2.12997 -2.182834,-0.98686 -5.179637,-2.56908 -5.179637,-2.73468 0,-0.11962 3.327387,-5.84442 3.526295,-6.06703 0.09178,-0.1027 0.951598,0.23459 1.910715,0.74955 2.054622,1.10315 6.097222,2.76797 8.957474,3.68887 l 2.033992,0.65487 -0.423312,1.54917 c -0.23282,0.85205 -0.656473,2.42324 -0.941451,3.49154 -0.386376,1.44842 -0.61636,1.93907 -0.904367,1.92941 -0.212423,-0.007 -1.81651,-0.51641 -3.564636,-1.13173 z"
         style="opacity:1;fill:#00aad4;fill-opacity:1;stroke:#00aad4;stroke-width:0.02037418;stroke-miterlimit:4;stroke-dasharray:none;stroke-dashoffset:0;stroke-opacity:1" />
      <path
         inkscape:connector-curvature="0"
         id="path25515"
         d="m 109.00774,205.52875 c -3.71727,-0.26702 -10.201032,-1.36171 -11.003754,-1.85782 -0.214516,-0.13258 -0.06896,-0.99031 0.58538,-3.44941 0.478994,-1.80013 0.941263,-3.35236 1.027269,-3.4494 0.086,-0.097 1.104655,0.0305 2.263675,0.28335 2.94827,0.64329 7.32046,1.188 9.53566,1.188 h 1.87145 v 3.76701 3.76701 l -0.88289,-0.0341 c -0.48559,-0.0187 -2.01415,-0.11533 -3.39679,-0.21466 z"
         style="opacity:1;fill:#00aad4;fill-opacity:1;stroke:#00aad4;stroke-width:0.02037418;stroke-miterlimit:4;stroke-dasharray:none;stroke-dashoffset:0;stroke-opacity:1" />
      <path
         inkscape:connector-curvature="0"
         id="path25517"
         d="m 113.7583,202.02126 v -3.77779 h 1.98916 c 2.34946,0 6.66757,-0.53574 9.62155,-1.19373 1.15938,-0.25825 2.15243,-0.42508 2.20677,-0.37074 0.0543,0.0543 0.50757,1.64539 1.00717,3.53566 l 0.90838,3.43686 -0.86224,0.22462 c -3.01286,0.78486 -8.15332,1.51836 -12.45756,1.77757 l -2.41323,0.14533 z"
         style="opacity:1;fill:#00aad4;fill-opacity:1;stroke:#00aad4;stroke-width:0.02037418;stroke-miterlimit:4;stroke-dasharray:none;stroke-dashoffset:0;stroke-opacity:1" />
      <path
         inkscape:connector-curvature="0"
         id="path25519"
         d="m 129.88447,203.12881 c -0.2858,-0.80665 -1.78249,-6.59256 -1.71948,-6.64719 0.04,-0.0347 1.39708,-0.50858 3.01572,-1.05308 1.61864,-0.5445 4.46932,-1.72416 6.33485,-2.62146 1.86554,-0.8973 3.4117,-1.60391 3.43591,-1.57024 0.0242,0.0337 0.65676,1.12068 1.40566,2.41559 0.7489,1.29491 1.56238,2.68846 1.80773,3.09679 l 0.44608,0.7424 -2.53609,1.29487 c -3.1271,1.59663 -6.43039,2.97869 -9.37015,3.92038 -2.52424,0.80859 -2.67524,0.83118 -2.82023,0.42194 z"
         style="opacity:1;fill:#aa4400;fill-opacity:1;stroke:#aa4400;stroke-width:0.02037418;stroke-miterlimit:4;stroke-dasharray:none;stroke-dashoffset:0;stroke-opacity:1" />
      <path
         inkscape:connector-curvature="0"
         id="path25521"
         d="m 143.12289,193.97419 -1.77427,-3.09208 2.15577,-1.41423 c 2.73399,-1.79357 4.47508,-3.12657 6.94676,-5.31854 l 1.96575,-1.74328 2.58315,2.56249 2.58314,2.56249 -1.84135,1.7194 c -2.93363,2.73932 -9.84294,7.81584 -10.63761,7.81584 -0.11388,0 -1.00549,-1.39144 -1.98134,-3.09209 z"
         style="opacity:1;fill:#d45500;fill-opacity:1;stroke:#d45500;stroke-width:0.02037418;stroke-miterlimit:4;stroke-dasharray:none;stroke-dashoffset:0;stroke-opacity:1" />
      <path
         inkscape:connector-curvature="0"
         id="path25523"
         d="m 155.33282,184.61626 -2.5701,-2.58651 1.64755,-1.8404 c 1.94766,-2.17563 4.06619,-4.94604 5.59326,-7.31433 0.60534,-0.93881 1.15663,-1.70692 1.22509,-1.70692 0.15925,0 5.79453,3.27748 6.04275,3.51446 0.4288,0.40941 -4.95382,7.853 -8.0317,11.10698 l -1.33675,1.41324 z"
         style="opacity:1;fill:#d45500;fill-opacity:1;stroke:#d45500;stroke-width:0.02037418;stroke-miterlimit:4;stroke-dasharray:none;stroke-dashoffset:0;stroke-opacity:1" />
      <path
         inkscape:connector-curvature="0"
         id="path25525"
         d="m 164.46641,172.41801 -3.08947,-1.79618 0.89778,-1.66923 c 1.23763,-2.3011 2.44931,-5.17481 3.53304,-8.37921 0.74661,-2.20758 0.99255,-2.69283 1.33191,-2.62787 0.67268,0.12877 6.53089,1.7232 6.60879,1.79872 0.14325,0.13887 -2.06355,6.43858 -3.01435,8.60503 -1.05445,2.40261 -2.86871,5.88351 -3.06051,5.87199 -0.0647,-0.004 -1.50798,-0.81535 -3.20719,-1.80325 z"
         style="opacity:1;fill:#d45500;fill-opacity:1;stroke:#d45500;stroke-width:0.02037418;stroke-miterlimit:4;stroke-dasharray:none;stroke-dashoffset:0;stroke-opacity:1" />
      <path
         inkscape:connector-curvature="0"
         id="path25527"
         d="m 162.37625,156.1625 c -1.68338,-0.45991 -3.07322,-0.84752 -3.08852,-0.86134 -0.0153,-0.0138 0.22068,-1.24352 0.52441,-2.73266 0.30373,-1.48915 0.61228,-3.66107 0.68567,-4.82648 0.0734,-1.16542 0.18822,-2.56922 0.25519,-3.11956 l 0.12175,-1.00061 h 3.66699 3.667 l -0.16163,2.53096 c -0.1831,2.86726 -0.66293,6.37616 -1.23952,9.06436 -0.339,1.5805 -0.45688,1.82176 -0.88101,1.80309 -0.2693,-0.0119 -1.86695,-0.39785 -3.55033,-0.85776 z"
         style="opacity:1;fill:#d45500;fill-opacity:1;stroke:#d45500;stroke-width:0.02037418;stroke-miterlimit:4;stroke-dasharray:none;stroke-dashoffset:0;stroke-opacity:1" />
      <path
         inkscape:connector-curvature="0"
         id="path25529"
         d="m 170.26342,158.27932 c -1.74813,-0.46455 -3.22457,-0.88207 -3.28099,-0.92783 -0.0564,-0.0458 0.13087,-1.27308 0.41619,-2.72739 0.71418,-3.64016 0.93356,-5.27379 1.12184,-8.35357 l 0.16191,-2.64868 h 3.65228 3.65228 l -0.15328,3.11955 c -0.23946,4.87357 -1.54257,12.44335 -2.13476,12.40096 -0.14138,-0.0101 -1.68734,-0.39849 -3.43547,-0.86304 z"
         style="opacity:1;fill:#d45500;fill-opacity:1;stroke:#d45500;stroke-width:0.02037418;stroke-miterlimit:4;stroke-dasharray:none;stroke-dashoffset:0;stroke-opacity:1" />
      <path
         inkscape:connector-curvature="0"
         id="path25531"
         d="m 166.50061,128.21169 c -0.1318,-0.34665 -0.23964,-0.73348 -0.23964,-0.85961 0,-0.5736 -2.2111,-6.05301 -3.39575,-8.41513 -0.72215,-1.43994 -1.31301,-2.71299 -1.31301,-2.82901 0,-0.22709 5.72835,-3.56391 6.1182,-3.56391 0.27731,0 2.46502,4.29618 3.6699,7.20686 1.17423,2.83664 2.49282,6.98089 2.279,7.16274 -0.0976,0.083 -1.50182,0.49977 -3.12045,0.92612 -1.61864,0.42636 -3.1265,0.82627 -3.3508,0.88871 -0.28158,0.0784 -0.482,-0.0816 -0.64745,-0.51677 z"
         style="opacity:1;fill:#d45500;fill-opacity:1;stroke:#d45500;stroke-width:0.02037418;stroke-miterlimit:4;stroke-dasharray:none;stroke-dashoffset:0;stroke-opacity:1" />
      <path
         inkscape:connector-curvature="0"
         id="path25533"
         d="m 168.5269,140.5023 c -0.18611,-3.09539 -0.7048,-6.85253 -1.29607,-9.38805 l -0.41862,-1.79517 3.31481,-0.88843 c 1.82315,-0.48864 3.43226,-0.93128 3.57581,-0.98364 0.56048,-0.20445 1.89745,7.62307 2.12935,12.46669 l 0.155,3.23727 h -3.65052 -3.65051 z"
         style="opacity:1;fill:#d45500;fill-opacity:1;stroke:#d45500;stroke-width:0.02037418;stroke-miterlimit:4;stroke-dasharray:none;stroke-dashoffset:0;stroke-opacity:1" />
      <path
         inkscape:connector-curvature="0"
         id="path25535"
         d="m 160.26633,114.17587 c -1.32098,-2.14015 -4.0829,-5.771 -5.85369,-7.69534 -0.8644,-0.93935 -1.57163,-1.78873 -1.57163,-1.88752 0,-0.0988 1.1475,-1.32357 2.55001,-2.72173 l 2.55002,-2.54211 2.0628,2.35092 c 1.13454,1.293 2.78122,3.3089 3.65929,4.47977 1.65935,2.21268 3.88804,5.65337 3.74155,5.77625 -0.0463,0.0388 -1.14371,0.68313 -2.43862,1.43173 -1.2949,0.7486 -2.68394,1.55766 -3.08674,1.79792 l -0.73238,0.43682 z"
         style="opacity:1;fill:#d45500;fill-opacity:1;stroke:#d45500;stroke-width:0.02037418;stroke-miterlimit:4;stroke-dasharray:none;stroke-dashoffset:0;stroke-opacity:1" />
      <path
         inkscape:connector-curvature="0"
         id="path25537"
         d="m 150.42874,102.49663 c -1.92434,-1.77079 -5.5552,-4.532713 -7.69534,-5.853687 l -1.42671,-0.880616 0.43988,-0.732372 c 0.24193,-0.402804 1.05262,-1.79184 1.80152,-3.08675 0.7489,-1.294908 1.39303,-2.393506 1.4314,-2.441327 0.11047,-0.137691 4.03364,2.408336 6.01695,3.904838 0.99259,0.748961 2.87672,2.309965 4.18694,3.468899 l 2.38223,2.107152 -2.53487,2.542753 c -1.39417,1.39851 -2.61569,2.54274 -2.71448,2.54274 -0.0988,0 -0.94817,-0.70723 -1.88752,-1.57163 z"
         style="opacity:1;fill:#d45500;fill-opacity:1;stroke:#d45500;stroke-width:0.02037418;stroke-miterlimit:4;stroke-dasharray:none;stroke-dashoffset:0;stroke-opacity:1" />
      <path
         inkscape:connector-curvature="0"
         id="path25539"
         d="m 137.3021,93.748152 c -1.74813,-0.864835 -4.44978,-1.989251 -6.00367,-2.498703 -1.55389,-0.509453 -2.90174,-0.987875 -2.99521,-1.063157 -0.1666,-0.134181 1.45413,-6.668884 1.71993,-6.934687 0.1761,-0.176091 4.51921,1.234448 7.13524,2.317356 3.01029,1.246113 7.20685,3.396379 7.20685,3.692702 0,0.467365 -3.35531,6.095783 -3.62281,6.077154 -0.14406,-0.01003 -1.69221,-0.725832 -3.44033,-1.590665 z"
         style="opacity:1;fill:#d45500;fill-opacity:1;stroke:#d45500;stroke-width:0.02037418;stroke-miterlimit:4;stroke-dasharray:none;stroke-dashoffset:0;stroke-opacity:1" />
      <path
         inkscape:connector-curvature="0"
         id="path25541"
         d="m 125.84854,89.691574 c -2.3932,-0.572635 -6.35624,-1.121794 -9.44157,-1.308322 l -2.64867,-0.160129 v -3.650517 -3.650514 l 3.23727,0.154993 c 3.48068,0.166648 6.24235,0.535768 10.10932,1.351198 2.00283,0.422336 2.41868,0.582366 2.32434,0.894477 -0.0632,0.209063 -0.49938,1.8104 -0.96929,3.558529 -0.46992,1.748126 -0.87107,3.186184 -0.89146,3.195685 -0.0204,0.0095 -0.79435,-0.163931 -1.71994,-0.3854 z"
         style="opacity:1;fill:#d45500;fill-opacity:1;stroke:#d45500;stroke-width:0.02037418;stroke-miterlimit:4;stroke-dasharray:none;stroke-dashoffset:0;stroke-opacity:1" />
      <path
         inkscape:connector-curvature="0"
         id="path25545"
         d="m 123.99985,97.319585 c -2.10562,-0.493363 -5.83349,-1.020426 -7.23817,-1.023368 -0.68068,-0.0013 -1.6349,-0.06826 -2.12049,-0.148524 l -0.88289,-0.145934 v -3.618484 -3.618483 l 1.00061,1.98e-4 c 2.07355,5.29e-4 6.29085,0.489805 9.35866,1.086027 1.74813,0.339746 3.21205,0.647616 3.25316,0.684152 0.10277,0.09133 -1.64433,6.787406 -1.81838,6.969257 -0.0769,0.08038 -0.77555,-0.0028 -1.5525,-0.184841 z"
         style="opacity:1;fill:#d45500;fill-opacity:1;stroke:#d45500;stroke-width:0.02037418;stroke-miterlimit:4;stroke-dasharray:none;stroke-dashoffset:0;stroke-opacity:1" />
      <path
         inkscape:connector-curvature="0"
         id="path25547"
         d="m 100.74447,94.458098 c -0.48236,-1.794676 -0.877021,-3.420999 -0.877021,-3.614049 0,-0.591598 5.884301,-1.669442 10.818581,-1.981666 l 2.60139,-0.164608 v 3.665855 3.665858 l -1.23605,0.125539 c -0.67983,0.06905 -2.08363,0.189103 -3.11955,0.266798 -1.6948,0.127106 -6.27298,0.901256 -7.01596,1.186365 -0.20405,0.0783 -0.56345,-0.888198 -1.17139,-3.150092 z"
         style="opacity:1;fill:#d45500;fill-opacity:1;stroke:#d45500;stroke-width:0.02037418;stroke-miterlimit:4;stroke-dasharray:none;stroke-dashoffset:0;stroke-opacity:1" />
      <path
         inkscape:connector-curvature="0"
         id="path25549"
         d="m 88.389848,99.167795 c -0.93881,-1.658427 -1.706927,-3.087378 -1.706927,-3.175447 0,-0.215916 4.299182,-2.360964 6.422244,-3.204334 2.401962,-0.954159 5.283451,-1.90428 5.775238,-1.90428 0.336613,0 0.588041,0.65065 1.321987,3.421054 0.49848,1.881579 0.86542,3.450997 0.81543,3.487595 -0.05,0.0366 -1.164293,0.412027 -2.476216,0.834292 -1.311926,0.422264 -3.680484,1.395575 -5.263462,2.162915 -1.582979,0.76735 -2.946369,1.3948 -3.029755,1.39435 -0.08339,-5.3e-4 -0.919731,-1.35772 -1.858539,-3.016145 z"
         style="opacity:1;fill:#d45500;fill-opacity:1;stroke:#d45500;stroke-width:0.02037418;stroke-miterlimit:4;stroke-dasharray:none;stroke-dashoffset:0;stroke-opacity:1" />
      <path
         inkscape:connector-curvature="0"
         id="path25551"
         d="m 77.850716,107.12567 -2.559267,-2.56723 0.45724,-0.51018 c 1.386885,-1.54748 8.753496,-7.143695 10.067261,-7.647834 0.296476,-0.113769 1.979366,2.513306 3.657031,5.708814 0.247859,0.4721 0.157472,0.58105 -1.132017,1.36437 -1.676368,1.01834 -4.261305,2.9844 -6.383719,4.85534 l -1.547262,1.36395 z"
         style="opacity:1;fill:#d45500;fill-opacity:1;stroke:#d45500;stroke-width:0.02037418;stroke-miterlimit:4;stroke-dasharray:none;stroke-dashoffset:0;stroke-opacity:1" />
      <path
         inkscape:connector-curvature="0"
         id="path25553"
         d="m 69.558947,117.64441 c -1.583986,-0.92759 -2.881836,-1.8052 -2.884114,-1.95025 -0.01125,-0.71508 4.284702,-6.56483 6.895269,-9.38923 l 1.305674,-1.41263 2.585571,2.564 2.585572,2.564 -1.877036,2.14476 c -1.03237,1.17962 -2.638221,3.28 -3.56856,4.66752 -0.930338,1.38752 -1.797473,2.51727 -1.926963,2.51056 -0.129492,-0.007 -1.531426,-0.77114 -3.115413,-1.69873 z"
         style="opacity:1;fill:#d45500;fill-opacity:1;stroke:#d45500;stroke-width:0.02037418;stroke-miterlimit:4;stroke-dasharray:none;stroke-dashoffset:0;stroke-opacity:1" />
      <path
         inkscape:connector-curvature="0"
         id="path25555"
         d="m 64.563106,129.94027 c -1.871371,-0.51265 -3.449032,-0.97864 -3.505914,-1.03552 -0.37719,-0.37719 4.413702,-12.02549 5.127463,-12.46662 0.204748,-0.12654 6.256009,3.34079 6.249395,3.58086 -0.0027,0.0972 -0.338527,0.81912 -0.746324,1.60421 -1.036745,1.99593 -2.558729,5.70686 -3.137114,7.64896 -0.267978,0.89982 -0.509233,1.62798 -0.536122,1.61813 -0.02689,-0.01 -1.580013,-0.43736 -3.451384,-0.95002 z"
         style="opacity:1;fill:#d45500;fill-opacity:1;stroke:#d45500;stroke-width:0.02037418;stroke-miterlimit:4;stroke-dasharray:none;stroke-dashoffset:0;stroke-opacity:1" />
      <path
         inkscape:connector-curvature="0"
         id="path25557"
         d="m 59.136674,141.31738 c 0,-2.70063 0.665625,-7.69819 1.429231,-10.73074 0.325485,-1.29262 -0.08612,-1.28672 4.339,-0.0623 3.279008,0.90731 3.038385,0.41163 2.271319,4.67894 -0.273339,1.52063 -0.567804,3.93092 -0.654371,5.35622 l -0.157395,2.59144 h -3.613891 -3.613893 z"
         style="opacity:1;fill:#d45500;fill-opacity:1;stroke:#d45500;stroke-width:0.02037418;stroke-miterlimit:4;stroke-dasharray:none;stroke-dashoffset:0;stroke-opacity:1" />
      <path
         inkscape:connector-curvature="0"
         id="path25559"
         d="m 60.427703,155.45999 c -0.717418,-3.22465 -1.072007,-5.7972 -1.217962,-8.83631 l -0.144166,-3.00183 h 3.634565 3.634566 l 0.290769,3.47271 c 0.159925,1.90999 0.496213,4.42624 0.747307,5.59165 0.251095,1.16542 0.460714,2.23778 0.465818,2.38302 0.0051,0.14525 -1.235599,0.59439 -2.757117,0.9981 -1.521518,0.40371 -3.102274,0.83128 -3.512791,0.95015 l -0.746395,0.21613 z"
         style="opacity:1;fill:#d45500;fill-opacity:1;stroke:#d45500;stroke-width:0.02037418;stroke-miterlimit:4;stroke-dasharray:none;stroke-dashoffset:0;stroke-opacity:1" />
      <path
         inkscape:connector-curvature="0"
         id="path25561"
         d="m 66.020444,169.93205 c -1.140587,-1.41619 -5.400921,-11.94213 -4.968139,-12.27471 0.2389,-0.18358 6.859058,-1.80771 6.959412,-1.70736 0.06443,0.0644 0.482079,1.21051 0.928116,2.54685 0.44604,1.33635 1.436825,3.72871 2.201746,5.31636 l 1.390769,2.88665 -0.517589,0.32181 c -1.237474,0.7694 -5.516829,3.20469 -5.631365,3.20469 -0.06926,0 -0.232584,-0.13243 -0.36295,-0.29429 z"
         style="opacity:1;fill:#d45500;fill-opacity:1;stroke:#d45500;stroke-width:0.02037418;stroke-miterlimit:4;stroke-dasharray:none;stroke-dashoffset:0;stroke-opacity:1" />
      <path
         inkscape:connector-curvature="0"
         id="path25563"
         d="m 73.465758,180.1736 c -1.847691,-1.95188 -3.692911,-4.31175 -5.466786,-6.9915 -0.852517,-1.28789 -1.526625,-2.35832 -1.498015,-2.37874 0.519848,-0.37116 6.343059,-3.65644 6.380519,-3.5997 0.02894,0.0438 0.523918,0.82086 1.099942,1.72671 1.173435,1.84532 4.260297,5.75473 5.384525,6.81932 l 0.735898,0.69686 -2.532536,2.54041 c -1.392893,1.39723 -2.597676,2.54041 -2.677289,2.54041 -0.07962,0 -0.721432,-0.60919 -1.426258,-1.35377 z"
         style="opacity:1;fill:#d45500;fill-opacity:1;stroke:#d45500;stroke-width:0.02037418;stroke-miterlimit:4;stroke-dasharray:none;stroke-dashoffset:0;stroke-opacity:1" />
      <path
         inkscape:connector-curvature="0"
         id="path25565"
         d="m 96.806757,195.21084 c -3.605366,-1.1895 -9.63599,-3.90251 -10.006192,-4.50151 -0.124587,-0.20158 1.50214,-3.26571 3.087052,-5.81482 l 0.321813,-0.51759 2.886647,1.39077 c 1.587656,0.76492 3.980015,1.75571 5.316357,2.20174 1.336339,0.44604 2.481186,0.86246 2.544106,0.92538 0.19705,0.19705 -1.664343,6.99476 -1.912749,6.98528 -0.129696,-0.005 -1.136362,-0.30611 -2.237034,-0.66925 z"
         style="opacity:1;fill:#d45500;fill-opacity:1;stroke:#d45500;stroke-width:0.02037418;stroke-miterlimit:4;stroke-dasharray:none;stroke-dashoffset:0;stroke-opacity:1" />
      <path
         inkscape:connector-curvature="0"
         id="path25567"
         d="m 83.723633,188.918 c -2.59723,-1.72114 -6.079032,-4.48553 -7.510121,-5.96268 l -0.934167,-0.96423 2.576539,-2.58456 2.576538,-2.58455 1.182886,1.14503 c 1.54458,1.49515 4.308674,3.64865 6.367413,4.96084 0.903747,0.57602 1.679045,1.071 1.722887,1.09994 0.05734,0.0379 -3.259733,5.91491 -3.603234,6.38406 -0.02238,0.0306 -1.092803,-0.64168 -2.378741,-1.49385 z"
         style="opacity:1;fill:#d45500;fill-opacity:1;stroke:#d45500;stroke-width:0.02037418;stroke-miterlimit:4;stroke-dasharray:none;stroke-dashoffset:0;stroke-opacity:1" />
      <path
         inkscape:connector-curvature="0"
         id="path25569"
         d="m 106.57744,197.40422 c -2.03713,-0.27675 -6.741593,-1.20356 -6.84115,-1.34774 -0.04835,-0.07 1.80408,-6.86044 1.89736,-6.95512 0.0421,-0.0428 1.17171,0.13883 2.51019,0.40354 2.63565,0.52125 6.36737,0.96912 8.07483,0.96912 h 1.06875 v 3.64928 3.64929 l -2.1778,-0.0243 c -1.19779,-0.0133 -3.23727,-0.16819 -4.53218,-0.34411 z"
         style="opacity:1;fill:#d45500;fill-opacity:1;stroke:#d45500;stroke-width:0.02037418;stroke-miterlimit:4;stroke-dasharray:none;stroke-dashoffset:0;stroke-opacity:1" />
      <path
         inkscape:connector-curvature="0"
         id="path25571"
         d="m 113.7583,194.1587 v -3.61389 l 2.59144,-0.1574 c 1.4253,-0.0866 3.83559,-0.38103 5.35622,-0.65437 4.29885,-0.77273 3.76021,-1.08039 4.80096,2.7422 0.49358,1.81287 0.89952,3.36301 0.9021,3.44476 0.0169,0.53684 -8.37589,1.85259 -11.81713,1.85259 h -1.83359 z"
         style="opacity:1;fill:#d45500;fill-opacity:1;stroke:#d45500;stroke-width:0.02037418;stroke-miterlimit:4;stroke-dasharray:none;stroke-dashoffset:0;stroke-opacity:1" />
      <path
         inkscape:connector-curvature="0"
         id="path25573"
         d="m 127.57023,194.53532 c -0.20702,-0.74457 -0.63659,-2.33173 -0.95458,-3.52702 l -0.57818,-2.17325 1.61784,-0.48182 c 1.93717,-0.57691 5.65567,-2.10455 7.63076,-3.13487 0.78509,-0.40955 1.4904,-0.77521 1.56737,-0.81259 0.1034,-0.0502 2.56943,4.06025 3.66241,6.10463 0.11549,0.21601 -2.15515,1.46595 -4.68723,2.58021 -1.96642,0.86534 -7.28804,2.79848 -7.70375,2.79848 -0.098,0 -0.34762,-0.6092 -0.55464,-1.35377 z"
         style="opacity:1;fill:#d45500;fill-opacity:1;stroke:#d45500;stroke-width:0.02037418;stroke-miterlimit:4;stroke-dasharray:none;stroke-dashoffset:0;stroke-opacity:1" />
      <path
         inkscape:connector-curvature="0"
         id="path25575"
         d="m 139.30332,187.3681 c -0.90644,-1.57591 -1.67564,-2.97854 -1.70934,-3.11695 -0.0337,-0.13843 0.60135,-0.67547 1.41123,-1.19343 1.99694,-1.27715 4.20113,-2.95891 6.20279,-4.73262 l 1.66679,-1.47698 2.57109,2.5903 2.57109,2.59029 -1.23582,1.14665 c -2.87208,2.66484 -8.83741,7.0678 -9.56604,7.06062 -0.14505,-0.001 -1.00535,-1.29198 -1.91179,-2.86788 z"
         style="opacity:1;fill:#d45500;fill-opacity:1;stroke:#d45500;stroke-width:0.02037418;stroke-miterlimit:4;stroke-dasharray:none;stroke-dashoffset:0;stroke-opacity:1" />
      <path
         inkscape:connector-curvature="0"
         id="path25577"
         d="m 149.73473,178.99641 -2.50965,-2.53096 1.06489,-1.17719 c 1.62311,-1.79426 4.18755,-5.14268 5.14227,-6.71431 0.78661,-1.29491 0.8956,-1.38557 1.36779,-1.13766 3.09353,1.62412 5.82183,3.36251 5.71485,3.64131 -0.18122,0.47223 -2.39903,3.74641 -3.64954,5.38785 -1.39438,1.83028 -4.23748,5.06192 -4.45333,5.06192 -0.0922,0 -1.29697,-1.13893 -2.67728,-2.53096 z"
         style="opacity:1;fill:#d45500;fill-opacity:1;stroke:#d45500;stroke-width:0.02037418;stroke-miterlimit:4;stroke-dasharray:none;stroke-dashoffset:0;stroke-opacity:1" />
      <path
         inkscape:connector-curvature="0"
         id="path25579"
         d="m 157.78521,168.54801 c -1.61864,-0.92208 -2.9871,-1.71624 -3.04102,-1.76481 -0.0539,-0.0486 0.55102,-1.43916 1.34431,-3.0902 0.79329,-1.65104 1.78491,-4.06137 2.20359,-5.35627 0.41869,-1.29491 0.79157,-2.39634 0.82863,-2.44762 0.0625,-0.0864 6.59693,1.58383 6.94195,1.77442 0.56247,0.3107 -4.47127,12.56552 -5.15988,12.5619 -0.096,-5.3e-4 -1.49895,-0.75535 -3.11758,-1.67742 z"
         style="opacity:1;fill:#d45500;fill-opacity:1;stroke:#d45500;stroke-width:0.02037418;stroke-miterlimit:4;stroke-dasharray:none;stroke-dashoffset:0;stroke-opacity:1" />
      <path
         inkscape:connector-curvature="0"
         id="path25581"
         d="m 160.76158,142.26808 c -0.0803,-0.48559 -0.1471,-1.43981 -0.14853,-2.12049 -0.003,-1.41256 -0.53772,-5.18603 -1.04019,-7.33993 -0.25522,-1.09405 -0.27095,-1.47999 -0.0632,-1.54973 0.91105,-0.30576 6.80646,-1.78421 6.86275,-1.72104 0.0374,0.042 0.34605,1.50669 0.68579,3.25481 0.59623,3.06781 1.08562,7.28511 1.08603,9.35866 l 2e-4,1.00061 h -3.61849 -3.61848 z"
         style="opacity:1;fill:#d45500;fill-opacity:1;stroke:#d45500;stroke-width:0.02037418;stroke-miterlimit:4;stroke-dasharray:none;stroke-dashoffset:0;stroke-opacity:1" />
      <path
         inkscape:connector-curvature="0"
         id="path25583"
         d="m 158.18967,128.13604 c -0.48974,-1.51835 -1.49624,-3.99504 -2.23666,-5.50375 l -1.34622,-2.74312 3.04386,-1.73021 c 1.67412,-0.95161 3.12172,-1.76246 3.21689,-1.80189 0.43711,-0.18109 3.94838,7.83239 4.99693,11.40408 l 0.3548,1.20856 -3.33414,0.88696 c -1.83378,0.48782 -3.44009,0.92139 -3.56958,0.96348 -0.12949,0.0421 -0.63613,-1.16576 -1.12588,-2.68411 z"
         style="opacity:1;fill:#d45500;fill-opacity:1;stroke:#d45500;stroke-width:0.02037418;stroke-miterlimit:4;stroke-dasharray:none;stroke-dashoffset:0;stroke-opacity:1" />
      <path
         inkscape:connector-curvature="0"
         id="path25585"
         d="m 153.40383,118.01797 c -1.32235,-2.07129 -3.35502,-4.71156 -4.90133,-6.36641 l -1.39553,-1.49348 2.59676,-2.59676 2.59675,-2.59676 1.24826,1.31985 c 2.35014,2.48492 5.6606,6.87975 6.79435,9.0199 0.25108,0.47395 0.19317,0.57595 -0.61051,1.07532 -1.44945,0.90061 -5.17029,2.99211 -5.32307,2.99211 -0.0778,0 -0.53033,-0.6092 -1.00568,-1.35377 z"
         style="opacity:1;fill:#d45500;fill-opacity:1;stroke:#d45500;stroke-width:0.02037418;stroke-miterlimit:4;stroke-dasharray:none;stroke-dashoffset:0;stroke-opacity:1" />
      <path
         inkscape:connector-curvature="0"
         id="path25587"
         d="m 145.76519,108.87323 c -1.21214,-1.26322 -4.09297,-3.5447 -6.28529,-4.97767 -1.0683,-0.69828 -1.94236,-1.33408 -1.94236,-1.41289 0,-0.15841 3.00561,-5.423834 3.35906,-5.884616 0.26382,-0.343935 0.49533,-0.237361 2.88004,1.325824 1.98258,1.299583 5.0413,3.727742 6.84688,5.435382 l 1.31851,1.247 -2.54833,2.55626 c -1.40158,1.40594 -2.60882,2.55626 -2.68274,2.55626 -0.0739,0 -0.49952,-0.3805 -0.94577,-0.84555 z"
         style="opacity:1;fill:#d45500;fill-opacity:1;stroke:#d45500;stroke-width:0.02037418;stroke-miterlimit:4;stroke-dasharray:none;stroke-dashoffset:0;stroke-opacity:1" />
      <path
         inkscape:connector-curvature="0"
         id="path25591"
         d="m 121.05688,104.74228 c -1.10068,-0.24105 -3.19313,-0.50753 -4.64991,-0.59216 l -2.64867,-0.15389 v -3.69563 -3.695633 l 1.82464,0.09275 c 3.66992,0.186563 9.09596,1.031163 9.56892,1.489472 0.27131,0.2629 -1.52071,7.069551 -1.84971,7.025801 -0.13423,-0.0179 -1.1446,-0.22967 -2.24527,-0.47072 z"
         style="opacity:1;fill:#d45500;fill-opacity:1;stroke:#d45500;stroke-width:0.02037418;stroke-miterlimit:4;stroke-dasharray:none;stroke-dashoffset:0;stroke-opacity:1" />
      <path
         inkscape:connector-curvature="0"
         id="path25593"
         d="m 103.38285,104.2568 c -1.31136,-4.807496 -1.58761,-5.97542 -1.44408,-6.105214 0.29276,-0.264729 5.28511,-1.142719 7.22848,-1.271251 1.03593,-0.06851 2.38676,-0.169421 3.00184,-0.224237 l 1.11833,-0.09967 v 3.720442 3.72045 l -2.41324,0.14172 c -2.08446,0.12242 -5.53635,0.63521 -6.81541,1.01245 -0.30763,0.0907 -0.46335,-0.1154 -0.67592,-0.89469 z"
         style="opacity:1;fill:#d45500;fill-opacity:1;stroke:#d45500;stroke-width:0.02037418;stroke-miterlimit:4;stroke-dasharray:none;stroke-dashoffset:0;stroke-opacity:1" />
      <path
         inkscape:connector-curvature="0"
         id="path25595"
         d="m 92.682363,106.59922 c -0.764135,-1.32728 -1.583899,-2.74808 -1.821698,-3.15732 l -0.432364,-0.74409 2.659491,-1.29494 c 2.810733,-1.36858 7.344038,-3.047573 7.923328,-2.934548 0.22985,0.04485 0.64171,1.197226 1.24005,3.469638 0.49274,1.87138 0.87312,3.41968 0.84529,3.44068 -0.0278,0.021 -0.95115,0.33146 -2.05182,0.68991 -1.100673,0.35846 -3.102807,1.16748 -4.44919,1.79783 -1.34638,0.63034 -2.465017,1.14608 -2.485858,1.14608 -0.02085,0 -0.663096,-1.08596 -1.427229,-2.41324 z"
         style="opacity:1;fill:#d45500;fill-opacity:1;stroke:#d45500;stroke-width:0.02037418;stroke-miterlimit:4;stroke-dasharray:none;stroke-dashoffset:0;stroke-opacity:1" />
      <path
         inkscape:connector-curvature="0"
         id="path25597"
         d="m 83.307631,112.58271 -2.543225,-2.55113 1.605489,-1.41213 c 2.052468,-1.80527 4.616082,-3.74043 6.321261,-4.77163 1.097475,-0.66369 1.37388,-0.74828 1.538621,-0.47087 0.110447,0.18598 0.930166,1.60502 1.8216,3.15341 l 1.620787,2.81525 -1.905415,1.27316 c -1.047978,0.70025 -2.765978,2.0026 -3.817773,2.89412 -1.051799,0.89153 -1.954157,1.62096 -2.00524,1.62096 -0.05108,0 -1.23733,-1.14801 -2.636105,-2.55114 z"
         style="opacity:1;fill:#d45500;fill-opacity:1;stroke:#d45500;stroke-width:0.02037418;stroke-miterlimit:4;stroke-dasharray:none;stroke-dashoffset:0;stroke-opacity:1" />
      <path
         inkscape:connector-curvature="0"
         id="path25599"
         d="m 76.441368,121.5828 c -1.683382,-0.98164 -3.084875,-1.80777 -3.114429,-1.83585 -0.02956,-0.0281 0.538896,-0.94508 1.263224,-2.03778 1.408925,-2.12546 3.142808,-4.3491 4.817888,-6.17877 l 1.035762,-1.13134 2.5655,2.58246 2.565498,2.58247 -1.660567,1.94047 c -0.91331,1.06726 -2.226707,2.81767 -2.918656,3.88981 -0.691949,1.07213 -1.311061,1.95473 -1.375807,1.96133 -0.06475,0.007 -1.495031,-0.79116 -3.178413,-1.7728 z"
         style="opacity:1;fill:#d45500;fill-opacity:1;stroke:#d45500;stroke-width:0.02037418;stroke-miterlimit:4;stroke-dasharray:none;stroke-dashoffset:0;stroke-opacity:1" />
      <path
         inkscape:connector-curvature="0"
         id="path25601"
         d="m 71.850326,131.91292 c -1.748128,-0.46601 -3.212602,-0.87276 -3.254393,-0.90389 -0.04179,-0.0311 0.30767,-1.20548 0.776576,-2.60967 0.939786,-2.8143 3.365756,-8.08587 3.721107,-8.08587 0.124003,0 0.822029,0.35647 1.551168,0.79216 0.729139,0.43569 2.092923,1.23444 3.030627,1.775 l 1.704922,0.98283 -0.979249,1.93315 c -0.538586,1.06324 -1.373354,3.0456 -1.855044,4.40525 -0.492072,1.38898 -1.016331,2.49099 -1.196546,2.51522 -0.176417,0.0237 -1.751039,-0.33816 -3.499168,-0.80418 z"
         style="opacity:1;fill:#d45500;fill-opacity:1;stroke:#d45500;stroke-width:0.02037418;stroke-miterlimit:4;stroke-dasharray:none;stroke-dashoffset:0;stroke-opacity:1" />
      <path
         inkscape:connector-curvature="0"
         id="path25603"
         d="m 67.003763,140.54887 c 0.167873,-2.65297 0.615071,-5.7484 1.140161,-7.89198 l 0.292552,-1.19429 3.534871,0.95885 3.534873,0.95885 -0.406041,1.8835 c -0.223321,1.03593 -0.532077,3.23433 -0.686122,4.88534 l -0.280086,3.00183 H 70.486542 66.83911 Z"
         style="opacity:1;fill:#d45500;fill-opacity:1;stroke:#d45500;stroke-width:0.02037418;stroke-miterlimit:4;stroke-dasharray:none;stroke-dashoffset:0;stroke-opacity:1" />
      <path
         inkscape:connector-curvature="0"
         id="path25605"
         d="m 68.003562,153.33367 c -0.577548,-2.74929 -0.838438,-4.6331 -1.01075,-7.29835 l -0.156036,-2.41347 h 3.65946 3.65946 l 0.158761,1.94236 c 0.08732,1.0683 0.326109,2.94887 0.530648,4.17903 0.648182,3.89838 0.936943,3.44763 -2.87706,4.49098 -1.812872,0.49592 -3.360267,0.90672 -3.438655,0.91289 -0.07839,0.006 -0.315008,-0.80989 -0.525828,-1.81344 z"
         style="opacity:1;fill:#d45500;fill-opacity:1;stroke:#d45500;stroke-width:0.02037418;stroke-miterlimit:4;stroke-dasharray:none;stroke-dashoffset:0;stroke-opacity:1" />
      <path
         inkscape:connector-curvature="0"
         id="path25607"
         d="m 72.376508,165.22325 c -1.306674,-2.32079 -4.019965,-9.23945 -3.735136,-9.52428 0.159991,-0.15999 6.840247,-1.93204 6.933152,-1.83914 0.05143,0.0514 0.395923,0.99343 0.765527,2.09332 0.513136,1.52701 2.378787,5.75605 2.973007,6.73918 0.03913,0.0648 -0.908831,0.67262 -2.106584,1.35084 -1.197755,0.67821 -2.617906,1.49929 -3.155897,1.8246 l -0.978162,0.59148 z"
         style="opacity:1;fill:#d45500;fill-opacity:1;stroke:#d45500;stroke-width:0.02037418;stroke-miterlimit:4;stroke-dasharray:none;stroke-dashoffset:0;stroke-opacity:1" />
      <path
         inkscape:connector-curvature="0"
         id="path25609"
         d="m 79.248272,174.88827 c -2.171719,-2.31887 -5.74988,-7.20748 -5.74988,-7.85569 0,-0.27132 5.604269,-3.64203 6.028687,-3.62598 0.115732,0.004 0.774208,0.84801 1.463281,1.87473 0.689075,1.02673 1.999879,2.73125 2.912898,3.78782 l 1.660039,1.92105 -2.573076,2.57307 -2.573076,2.57308 z"
         style="opacity:1;fill:#d45500;fill-opacity:1;stroke:#d45500;stroke-width:0.02037418;stroke-miterlimit:4;stroke-dasharray:none;stroke-dashoffset:0;stroke-opacity:1" />
      <path
         inkscape:connector-curvature="0"
         id="path25611"
         d="m 87.492233,181.97584 c -2.349301,-1.60217 -4.775938,-3.54095 -5.926542,-4.73506 l -0.761629,-0.79043 2.558912,-2.55097 2.55891,-2.55098 1.919639,1.65882 c 1.055801,0.91236 2.759686,2.22261 3.78641,2.91169 1.026726,0.68907 1.870355,1.3462 1.874731,1.46029 0.0167,0.43477 -3.337594,6.03168 -3.614838,6.03168 -0.160252,0 -1.238268,-0.64577 -2.395593,-1.43504 z"
         style="opacity:1;fill:#d45500;fill-opacity:1;stroke:#d45500;stroke-width:0.02037418;stroke-miterlimit:4;stroke-dasharray:none;stroke-dashoffset:0;stroke-opacity:1" />
      <path
         inkscape:connector-curvature="0"
         id="path25613"
         d="m 98.69026,187.54861 c -2.568131,-0.88496 -4.948939,-1.90928 -6.869396,-2.95549 l -1.336601,-0.72814 1.779953,-3.11117 c 0.978974,-1.71114 1.79234,-3.12706 1.807477,-3.14649 0.01513,-0.0194 1.086996,0.4768 2.381906,1.10273 1.294908,0.62592 3.287665,1.4515 4.428351,1.83461 1.14068,0.38311 2.11489,0.73749 2.1649,0.7875 0.0785,0.0785 -0.28037,1.50801 -1.51194,6.0223 -0.15014,0.55034 -0.34836,0.99258 -0.44049,0.98275 -0.0921,-0.01 -1.173996,-0.36469 -2.40416,-0.7886 z"
         style="opacity:1;fill:#d45500;fill-opacity:1;stroke:#d45500;stroke-width:0.02037418;stroke-miterlimit:4;stroke-dasharray:none;stroke-dashoffset:0;stroke-opacity:1" />
      <path
         inkscape:connector-curvature="0"
         id="path25615"
         d="m 108.57866,189.74352 c -1.62327,-0.1825 -6.61625,-1.09851 -6.75746,-1.23972 -0.0334,-0.0334 0.26092,-1.27248 0.65411,-2.75343 0.39319,-1.48096 0.81679,-3.082 0.94134,-3.55787 0.22018,-0.84132 0.24746,-0.85907 0.9873,-0.64259 1.09497,0.3204 4.68005,0.86009 6.94111,1.0449 l 1.94236,0.15876 v 3.62479 3.62478 l -1.47149,-0.0305 c -0.80932,-0.0168 -2.26609,-0.11989 -3.23727,-0.22908 z"
         style="opacity:1;fill:#d45500;fill-opacity:1;stroke:#d45500;stroke-width:0.02037418;stroke-miterlimit:4;stroke-dasharray:none;stroke-dashoffset:0;stroke-opacity:1" />
      <path
         inkscape:connector-curvature="0"
         id="path25617"
         d="m 113.7583,186.41502 v -3.65514 l 1.82464,-0.15667 c 2.60617,-0.22377 5.15276,-0.57398 6.65112,-0.91468 l 1.29491,-0.29443 0.95885,3.53935 0.95885,3.53934 -1.19428,0.29255 c -2.14359,0.52509 -5.23902,0.97229 -7.89199,1.14017 l -2.6021,0.16465 z"
         style="opacity:1;fill:#d45500;fill-opacity:1;stroke:#d45500;stroke-width:0.02037418;stroke-miterlimit:4;stroke-dasharray:none;stroke-dashoffset:0;stroke-opacity:1" />
      <path
         inkscape:connector-curvature="0"
         id="path25619"
         d="m 124.98283,184.89934 c -0.49214,-1.89013 -0.80869,-3.51167 -0.70345,-3.60342 0.10524,-0.0917 1.19037,-0.50948 2.41139,-0.92829 1.22103,-0.41881 3.15047,-1.22876 4.28765,-1.79988 l 2.0676,-1.03841 0.98272,1.70472 c 0.54049,0.93759 1.33919,2.30128 1.77488,3.03042 0.43569,0.72914 0.79216,1.42717 0.79216,1.55117 0,0.30791 -5.07374,2.69514 -7.53401,3.5448 -3.51519,1.21398 -3.04877,1.49541 -4.07894,-2.46111 z"
         style="opacity:1;fill:#d45500;fill-opacity:1;stroke:#d45500;stroke-width:0.02037418;stroke-miterlimit:4;stroke-dasharray:none;stroke-dashoffset:0;stroke-opacity:1" />
      <path
         inkscape:connector-curvature="0"
         id="path25621"
         d="m 135.31692,180.44335 c -1.01085,-1.74694 -1.79881,-3.20123 -1.75102,-3.23175 2.37586,-1.5171 3.85827,-2.58988 5.61157,-4.06093 l 2.16639,-1.81763 2.56103,2.55309 c 2.08741,2.08094 2.50966,2.61497 2.2833,2.88772 -0.93524,1.12689 -6.51982,5.38732 -8.78314,6.70057 -0.14422,0.0837 -1.02872,-1.20023 -2.08813,-3.03107 z"
         style="opacity:1;fill:#d45500;fill-opacity:1;stroke:#d45500;stroke-width:0.02037418;stroke-miterlimit:4;stroke-dasharray:none;stroke-dashoffset:0;stroke-opacity:1" />
      <path
         inkscape:connector-curvature="0"
         id="path25623"
         d="m 144.2674,173.55306 -2.56994,-2.58858 1.65993,-1.95827 c 0.91297,-1.07705 2.23286,-2.81571 2.93311,-3.86369 l 1.27316,-1.90542 2.81525,1.62079 c 1.54839,0.89144 2.9651,1.70985 3.14824,1.81871 0.27404,0.16288 0.22187,0.38754 -0.29467,1.26894 -0.85761,1.4634 -3.84733,5.42093 -5.24689,6.94537 l -1.14825,1.25072 z"
         style="opacity:1;fill:#d45500;fill-opacity:1;stroke:#d45500;stroke-width:0.02037418;stroke-miterlimit:4;stroke-dasharray:none;stroke-dashoffset:0;stroke-opacity:1" />
      <path
         inkscape:connector-curvature="0"
         id="path25625"
         d="m 151.07641,164.67158 c -1.66985,-0.96649 -3.0695,-1.79067 -3.11033,-1.8315 -0.0408,-0.0408 0.39508,-1.07078 0.96868,-2.28879 0.57361,-1.21801 1.38693,-3.22106 1.80739,-4.45122 0.42047,-1.23017 0.77847,-2.25943 0.79557,-2.28726 0.10548,-0.17165 6.82602,1.78621 6.90074,2.01036 0.21593,0.64778 -2.57687,7.7734 -3.86283,9.85574 l -0.46312,0.74993 z"
         style="opacity:1;fill:#d45500;fill-opacity:1;stroke:#d45500;stroke-width:0.02037418;stroke-miterlimit:4;stroke-dasharray:none;stroke-dashoffset:0;stroke-opacity:1" />
      <path
         inkscape:connector-curvature="0"
         id="path25627"
         d="m 155.11783,154.21526 c -1.79078,-0.49465 -3.2896,-0.93509 -3.33071,-0.97877 -0.0411,-0.0437 0.12505,-1.0859 0.36924,-2.31606 0.24419,-1.23016 0.51432,-3.37559 0.60029,-4.76762 l 0.1563,-2.53096 h 3.68883 3.68883 l -0.0926,2.06008 c -0.14491,3.2224 -1.1747,9.27805 -1.59478,9.37808 -0.12616,0.03 -1.69457,-0.35009 -3.48536,-0.84475 z"
         style="opacity:1;fill:#d45500;fill-opacity:1;stroke:#d45500;stroke-width:0.02037418;stroke-miterlimit:4;stroke-dasharray:none;stroke-dashoffset:0;stroke-opacity:1" />
      <path
         inkscape:connector-curvature="0"
         id="path25629"
         d="m 152.76221,140.5023 c -0.083,-1.45678 -0.36017,-3.65021 -0.61603,-4.8743 -0.25586,-1.22409 -0.44258,-2.24212 -0.41493,-2.26229 0.38651,-0.28184 6.83574,-1.76821 6.98848,-1.61065 0.46046,0.47502 1.30478,5.89207 1.49182,9.57127 l 0.0927,1.82464 h -3.69563 -3.69563 z"
         style="opacity:1;fill:#d45500;fill-opacity:1;stroke:#d45500;stroke-width:0.02037418;stroke-miterlimit:4;stroke-dasharray:none;stroke-dashoffset:0;stroke-opacity:1" />
      <path
         inkscape:connector-curvature="0"
         id="path25631"
         d="m 150.88163,130.8148 c -0.35409,-1.08729 -1.17147,-3.05591 -1.81639,-4.37472 -0.64493,-1.3188 -1.1166,-2.48841 -1.04817,-2.59914 0.13466,-0.21788 5.8446,-3.52745 6.08585,-3.52745 0.47755,0 3.90595,7.94819 4.26656,9.89134 l 0.15347,0.82699 -3.27391,0.87994 c -1.80065,0.48397 -3.37509,0.87994 -3.49876,0.87994 -0.12366,0 -0.51456,-0.8896 -0.86865,-1.9769 z"
         style="opacity:1;fill:#d45500;fill-opacity:1;stroke:#d45500;stroke-width:0.02037418;stroke-miterlimit:4;stroke-dasharray:none;stroke-dashoffset:0;stroke-opacity:1" />
      <path
         inkscape:connector-curvature="0"
         id="path25633"
         d="m 147.09368,122.7083 c -0.53467,-1.03394 -3.16068,-4.50069 -4.40991,-5.82177 l -1.12555,-1.1903 2.5763,-2.5683 2.57629,-2.56831 0.84995,0.81563 c 2.17286,2.08512 6.48086,8.07194 6.08546,8.45695 -0.22758,0.22159 -5.96318,3.54198 -6.11839,3.54198 -0.0494,0 -0.24476,-0.29965 -0.43415,-0.66588 z"
         style="opacity:1;fill:#d45500;fill-opacity:1;stroke:#d45500;stroke-width:0.02037418;stroke-miterlimit:4;stroke-dasharray:none;stroke-dashoffset:0;stroke-opacity:1" />
      <path
         inkscape:connector-curvature="0"
         id="path25635"
         d="m 139.72844,113.98222 c -1.24271,-1.15457 -4.48425,-3.59081 -5.83126,-4.38259 -0.35921,-0.21114 -0.21993,-0.5562 1.28301,-3.17841 0.92728,-1.61785 1.78088,-3.03903 1.89688,-3.15816 0.38515,-0.39555 6.37191,3.91269 8.45828,6.08682 l 0.81695,0.85132 -2.58274,2.56799 -2.58274,2.56799 z"
         style="opacity:1;fill:#d45500;fill-opacity:1;stroke:#d45500;stroke-width:0.02037418;stroke-miterlimit:4;stroke-dasharray:none;stroke-dashoffset:0;stroke-opacity:1" />
      <path
         inkscape:connector-curvature="0"
         id="path25637"
         d="m 130.6943,107.95961 c -1.10922,-0.5652 -3.01626,-1.37173 -4.23788,-1.7923 -1.22162,-0.42057 -2.26204,-0.7968 -2.31203,-0.83606 -0.05,-0.0393 0.31886,-1.61806 0.81966,-3.50843 l 0.91055,-3.43703 0.82841,0.153736 c 2.01918,0.374724 9.90031,3.797634 9.8887,4.294834 -0.008,0.33908 -3.4132,6.02839 -3.64522,6.09017 -0.12949,0.0345 -1.14297,-0.39973 -2.25219,-0.96492 z"
         style="opacity:1;fill:#d45500;fill-opacity:1;stroke:#d45500;stroke-width:0.02037418;stroke-miterlimit:4;stroke-dasharray:none;stroke-dashoffset:0;stroke-opacity:1" />
      <path
         inkscape:connector-curvature="0"
         id="path25374"
         d="m 180.11008,220.71808 -27.78168,-28.488"
         style="fill:#000000;stroke:#000000;stroke-width:0.02040626;stroke-linecap:butt;stroke-linejoin:miter;stroke-miterlimit:4;stroke-dasharray:none;stroke-opacity:1;marker-end:url(#marker25903)" />
    </g>
    <g
       id="g26121"
       transform="translate(42.333335)">
      <path
         sodipodi:nodetypes="cccc"
         inkscape:connector-curvature="0"
         id="path25312"
         d="m 282.92299,64.877522 v 39.221248 m 0,78.4425 v 39.22125"
         style="fill:none;stroke:#000000;stroke-width:0.26458332px;stroke-linecap:butt;stroke-linejoin:miter;stroke-opacity:1" />
      <path
         style="fill:none;stroke:#000000;stroke-width:0.26458332px;stroke-linecap:butt;stroke-linejoin:miter;stroke-opacity:1"
         d="M 303.2254,67.550385 293.0742,105.4352 m -20.30242,75.76964 -10.15121,37.88482"
         id="path25314"
         inkscape:connector-curvature="0"
         sodipodi:nodetypes="cccc" />
      <path
         sodipodi:nodetypes="cccc"
         inkscape:connector-curvature="0"
         id="path25316"
         d="m 322.14424,75.386824 -19.61062,33.966596 m -39.22126,67.9332 -19.61064,33.9666"
         style="fill:none;stroke:#000000;stroke-width:0.26458332px;stroke-linecap:butt;stroke-linejoin:miter;stroke-opacity:1" />
      <path
         style="fill:none;stroke:#000000;stroke-width:0.26458332px;stroke-linecap:butt;stroke-linejoin:miter;stroke-opacity:1"
         d="m 338.39021,87.852798 -27.7336,27.733612 m -55.46724,55.46722 -27.73363,27.73362"
         id="path25318"
         inkscape:connector-curvature="0"
         sodipodi:nodetypes="cccc" />
      <path
         sodipodi:nodetypes="cccc"
         inkscape:connector-curvature="0"
         id="path25320"
         d="M 350.85618,104.09877 316.8896,123.7094 m -67.93322,39.22124 -33.96662,19.61064"
         style="fill:none;stroke:#000000;stroke-width:0.26458332px;stroke-linecap:butt;stroke-linejoin:miter;stroke-opacity:1" />
      <path
         style="fill:none;stroke:#000000;stroke-width:0.26458332px;stroke-linecap:butt;stroke-linejoin:miter;stroke-opacity:1"
         d="m 358.69262,123.01761 -37.8848,10.15121 m -75.76966,20.3024 -37.88485,10.15122"
         id="path25322"
         inkscape:connector-curvature="0"
         sodipodi:nodetypes="cccc" />
      <path
         sodipodi:nodetypes="cccc"
         inkscape:connector-curvature="0"
         id="path25324"
         d="m 361.36548,143.32002 -39.22123,1e-5 m -78.44252,-1e-5 -39.22128,1e-5"
         style="fill:none;stroke:#000000;stroke-width:0.26458332px;stroke-linecap:butt;stroke-linejoin:miter;stroke-opacity:1" />
      <path
         style="fill:none;stroke:#000000;stroke-width:0.26458332px;stroke-linecap:butt;stroke-linejoin:miter;stroke-opacity:1"
         d="m 358.69262,163.62243 -37.8848,-10.15119 m -75.76966,-20.30242 -37.88485,-10.1512"
         id="path25326"
         inkscape:connector-curvature="0"
         sodipodi:nodetypes="cccc" />
      <path
         sodipodi:nodetypes="cccc"
         inkscape:connector-curvature="0"
         id="path25328"
         d="M 350.85618,182.54127 316.8896,162.93066 M 248.95638,123.7094 214.98975,104.09878"
         style="fill:none;stroke:#000000;stroke-width:0.26458332px;stroke-linecap:butt;stroke-linejoin:miter;stroke-opacity:1" />
      <path
         style="fill:none;stroke:#000000;stroke-width:0.26458332px;stroke-linecap:butt;stroke-linejoin:miter;stroke-opacity:1"
         d="m 338.39021,198.78724 -27.7336,-27.73359 M 255.18937,115.58642 227.45573,87.852806"
         id="path25330"
         inkscape:connector-curvature="0"
         sodipodi:nodetypes="cccc" />
      <path
         sodipodi:nodetypes="cccc"
         inkscape:connector-curvature="0"
         id="path25332"
         d="M 322.14424,211.25321 302.53362,177.28664 M 263.31236,109.35344 243.70172,75.386831"
         style="fill:none;stroke:#000000;stroke-width:0.26458332px;stroke-linecap:butt;stroke-linejoin:miter;stroke-opacity:1" />
      <path
         style="fill:none;stroke:#000000;stroke-width:0.26458332px;stroke-linecap:butt;stroke-linejoin:miter;stroke-opacity:1"
         d="M 303.2254,219.08965 293.0742,181.20486 M 272.77178,105.43522 262.62056,67.550391"
         id="path25334"
         inkscape:connector-curvature="0"
         sodipodi:nodetypes="cccc" />
      <circle
         r="78.309975"
         cy="143.32002"
         cx="282.92294"
         id="path25290"
         style="opacity:1;fill:none;fill-opacity:1;stroke:#1a1a1a;stroke-width:0.26458332;stroke-miterlimit:4;stroke-dasharray:none;stroke-dashoffset:0;stroke-opacity:1" />
      <circle
         style="opacity:1;fill:none;fill-opacity:1;stroke:#1a1a1a;stroke-width:0.26458332;stroke-miterlimit:4;stroke-dasharray:none;stroke-dashoffset:0;stroke-opacity:1"
         id="circle25298"
         cx="282.92294"
         cy="143.32002"
         r="70.465752" />
      <circle
         style="opacity:1;fill:none;fill-opacity:1;stroke:#1a1a1a;stroke-width:0.26458332;stroke-miterlimit:4;stroke-dasharray:none;stroke-dashoffset:0;stroke-opacity:1"
         id="circle25300"
         cx="282.92294"
         cy="143.32002"
         r="62.621521" />
      <circle
         style="opacity:1;fill:none;fill-opacity:1;stroke:#1a1a1a;stroke-width:0.26458332;stroke-miterlimit:4;stroke-dasharray:none;stroke-dashoffset:0;stroke-opacity:1"
         id="circle25304"
         cx="282.92294"
         cy="143.32002"
         r="54.777294" />
      <circle
         style="opacity:1;fill:none;fill-opacity:1;stroke:#1a1a1a;stroke-width:0.26458332;stroke-miterlimit:4;stroke-dasharray:none;stroke-dashoffset:0;stroke-opacity:1"
         id="circle25306"
         cx="282.92294"
         cy="143.32002"
         r="46.933067" />
      <circle
         style="opacity:1;fill:none;fill-opacity:1;stroke:#1a1a1a;stroke-width:0.26458332;stroke-miterlimit:4;stroke-dasharray:none;stroke-dashoffset:0;stroke-opacity:1"
         id="circle25310"
         cx="282.92294"
         cy="143.32002"
         r="39.08884" />
    </g>
  </g>
</svg>
