<?xml version="1.0" encoding="UTF-8" standalone="no"?>
<!-- Created with Inkscape (http://www.inkscape.org/) -->

<svg
   xmlns:dc="http://purl.org/dc/elements/1.1/"
   xmlns:cc="http://creativecommons.org/ns#"
   xmlns:rdf="http://www.w3.org/1999/02/22-rdf-syntax-ns#"
   xmlns:svg="http://www.w3.org/2000/svg"
   xmlns="http://www.w3.org/2000/svg"
   xmlns:sodipodi="http://sodipodi.sourceforge.net/DTD/sodipodi-0.dtd"
   xmlns:inkscape="http://www.inkscape.org/namespaces/inkscape"
   width="158.82959mm"
   height="220.73808mm"
   viewBox="0 0 158.82958 220.73808"
   version="1.1"
   id="svg20726"
   sodipodi:docname="demandpaging.svg"
   inkscape:version="0.92.2 (5c3e80d, 2017-08-06)"
   inkscape:export-filename="/home/peikos/Work/V1EOS/Slides/images/demandpaging.png"
   inkscape:export-xdpi="149.86"
   inkscape:export-ydpi="149.86">
  <defs
     id="defs20720">
    <marker
       inkscape:stockid="Arrow1Lend"
       orient="auto"
       refY="0"
       refX="0"
       id="marker5435"
       style="overflow:visible"
       inkscape:isstock="true">
      <path
         id="path5433"
         d="M 0,0 5,-5 -12.5,0 5,5 Z"
         style="fill:#000000;fill-opacity:1;fill-rule:evenodd;stroke:#000000;stroke-width:1.00000003pt;stroke-opacity:1"
         transform="matrix(-0.8,0,0,-0.8,-10,0)"
         inkscape:connector-curvature="0" />
    </marker>
    <marker
       inkscape:isstock="true"
       style="overflow:visible"
       id="marker1419"
       refX="0"
       refY="0"
       orient="auto"
       inkscape:stockid="Arrow1Lend"
       inkscape:collect="always">
      <path
         transform="matrix(-0.8,0,0,-0.8,-10,0)"
         style="fill:#000000;fill-opacity:1;fill-rule:evenodd;stroke:#000000;stroke-width:1.00000003pt;stroke-opacity:1"
         d="M 0,0 5,-5 -12.5,0 5,5 Z"
         id="path1417"
         inkscape:connector-curvature="0" />
    </marker>
    <marker
       inkscape:isstock="true"
       style="overflow:visible"
       id="marker1229"
       refX="0"
       refY="0"
       orient="auto"
       inkscape:stockid="Arrow1Lend">
      <path
         transform="matrix(-0.8,0,0,-0.8,-10,0)"
         style="fill:#000000;fill-opacity:1;fill-rule:evenodd;stroke:#000000;stroke-width:1.00000003pt;stroke-opacity:1"
         d="M 0,0 5,-5 -12.5,0 5,5 Z"
         id="path1227"
         inkscape:connector-curvature="0" />
    </marker>
    <marker
       inkscape:isstock="true"
       style="overflow:visible"
       id="marker1225"
       refX="0"
       refY="0"
       orient="auto"
       inkscape:stockid="Arrow1Lend">
      <path
         transform="matrix(-0.8,0,0,-0.8,-10,0)"
         style="fill:#000000;fill-opacity:1;fill-rule:evenodd;stroke:#000000;stroke-width:1.00000003pt;stroke-opacity:1"
         d="M 0,0 5,-5 -12.5,0 5,5 Z"
         id="path1223"
         inkscape:connector-curvature="0" />
    </marker>
    <marker
       inkscape:isstock="true"
       style="overflow:visible"
       id="marker1221"
       refX="0"
       refY="0"
       orient="auto"
       inkscape:stockid="Arrow1Lend">
      <path
         transform="matrix(-0.8,0,0,-0.8,-10,0)"
         style="fill:#000000;fill-opacity:1;fill-rule:evenodd;stroke:#000000;stroke-width:1.00000003pt;stroke-opacity:1"
         d="M 0,0 5,-5 -12.5,0 5,5 Z"
         id="path1219"
         inkscape:connector-curvature="0" />
    </marker>
    <marker
       inkscape:isstock="true"
       style="overflow:visible"
       id="marker1217"
       refX="0"
       refY="0"
       orient="auto"
       inkscape:stockid="Arrow1Lend">
      <path
         transform="matrix(-0.8,0,0,-0.8,-10,0)"
         style="fill:#000000;fill-opacity:1;fill-rule:evenodd;stroke:#000000;stroke-width:1.00000003pt;stroke-opacity:1"
         d="M 0,0 5,-5 -12.5,0 5,5 Z"
         id="path1215"
         inkscape:connector-curvature="0" />
    </marker>
    <marker
       inkscape:isstock="true"
       style="overflow:visible"
       id="marker2375"
       refX="0"
       refY="0"
       orient="auto"
       inkscape:stockid="Arrow1Lend">
      <path
         transform="matrix(-0.8,0,0,-0.8,-10,0)"
         style="fill:#000000;fill-opacity:1;fill-rule:evenodd;stroke:#000000;stroke-width:1.00000003pt;stroke-opacity:1"
         d="M 0,0 5,-5 -12.5,0 5,5 Z"
         id="path2373"
         inkscape:connector-curvature="0" />
    </marker>
    <marker
       inkscape:isstock="true"
       style="overflow:visible"
       id="marker2371"
       refX="0"
       refY="0"
       orient="auto"
       inkscape:stockid="Arrow1Lend">
      <path
         transform="matrix(-0.8,0,0,-0.8,-10,0)"
         style="fill:#000000;fill-opacity:1;fill-rule:evenodd;stroke:#000000;stroke-width:1.00000003pt;stroke-opacity:1"
         d="M 0,0 5,-5 -12.5,0 5,5 Z"
         id="path2369"
         inkscape:connector-curvature="0" />
    </marker>
    <marker
       inkscape:isstock="true"
       style="overflow:visible"
       id="marker2746"
       refX="0"
       refY="0"
       orient="auto"
       inkscape:stockid="Arrow1Lend">
      <path
         transform="matrix(-0.8,0,0,-0.8,-10,0)"
         style="fill:#000000;fill-opacity:1;fill-rule:evenodd;stroke:#000000;stroke-width:1.00000003pt;stroke-opacity:1"
         d="M 0,0 5,-5 -12.5,0 5,5 Z"
         id="path2744"
         inkscape:connector-curvature="0" />
    </marker>
    <marker
       inkscape:isstock="true"
       style="overflow:visible"
       id="marker2144"
       refX="0"
       refY="0"
       orient="auto"
       inkscape:stockid="Arrow1Lend">
      <path
         transform="matrix(-0.8,0,0,-0.8,-10,0)"
         style="fill:#000000;fill-opacity:1;fill-rule:evenodd;stroke:#000000;stroke-width:1.00000003pt;stroke-opacity:1"
         d="M 0,0 5,-5 -12.5,0 5,5 Z"
         id="path2142"
         inkscape:connector-curvature="0" />
    </marker>
  </defs>
  <sodipodi:namedview
     id="base"
     pagecolor="#ffffff"
     bordercolor="#666666"
     borderopacity="1.0"
     inkscape:pageopacity="0.0"
     inkscape:pageshadow="2"
     inkscape:zoom="0.69248661"
     inkscape:cx="443.03293"
     inkscape:cy="281.03946"
     inkscape:document-units="mm"
     inkscape:current-layer="layer1"
     showgrid="false"
     inkscape:snap-global="false"
     inkscape:window-width="1920"
     inkscape:window-height="1070"
     inkscape:window-x="0"
     inkscape:window-y="10"
     inkscape:window-maximized="0"
     fit-margin-top="0"
     fit-margin-left="0"
     fit-margin-right="0"
     fit-margin-bottom="0"
     showguides="false" />
  <metadata
     id="metadata20723">
    <rdf:RDF>
      <cc:Work
         rdf:about="">
        <dc:format>image/svg+xml</dc:format>
        <dc:type
           rdf:resource="http://purl.org/dc/dcmitype/StillImage" />
        <dc:title></dc:title>
      </cc:Work>
    </rdf:RDF>
  </metadata>
  <g
     inkscape:label="Layer 1"
     inkscape:groupmode="layer"
     id="layer1"
     transform="translate(-1.5119048,-1.4226189)">
    <rect
       style="opacity:1;fill:#ffffff;fill-opacity:1;stroke:none;stroke-width:0.26458332;stroke-miterlimit:4;stroke-dasharray:1.05833327, 2.11666652;stroke-dashoffset:0;stroke-opacity:1"
       id="rect2393"
       width="158.82959"
       height="220.73808"
       x="1.5119048"
       y="1.4226189" />
    <path
       style="fill:none;stroke:#000000;stroke-width:0.26458332;stroke-linecap:butt;stroke-linejoin:miter;stroke-miterlimit:4;stroke-dasharray:1.05833327, 2.11666654;stroke-dashoffset:0;stroke-opacity:1"
       d="M 78.764408,12.56378 V 71.717052"
       id="path2377"
       inkscape:connector-curvature="0" />
    <path
       inkscape:connector-curvature="0"
       id="path2379"
       d="M 107.32004,12.56378 V 71.717052"
       style="fill:none;stroke:#000000;stroke-width:0.26458332;stroke-linecap:butt;stroke-linejoin:miter;stroke-miterlimit:4;stroke-dasharray:1.05833327, 2.11666654;stroke-dashoffset:0;stroke-opacity:1" />
    <rect
       style="opacity:1;fill:none;fill-opacity:1;stroke:#000000;stroke-width:0.50006253;stroke-miterlimit:4;stroke-dasharray:none;stroke-dashoffset:0;stroke-opacity:1"
       id="rect21271"
       width="30.238096"
       height="151.56847"
       x="15.119047"
       y="57.363094" />
    <rect
       y="190.71312"
       x="18.71254"
       height="14.363109"
       width="23.051111"
       id="rect21273"
       style="opacity:1;fill:#ff2727;fill-opacity:0.28235294;stroke:#000000;stroke-width:0.50006253;stroke-miterlimit:4;stroke-dasharray:none;stroke-dashoffset:0;stroke-opacity:1" />
    <rect
       style="opacity:1;fill:#87dc87;fill-opacity:0.28235294;stroke:#000000;stroke-width:0.50006253;stroke-miterlimit:4;stroke-dasharray:none;stroke-dashoffset:0;stroke-opacity:1"
       id="rect21275"
       width="23.051111"
       height="4.4999375"
       x="18.71254"
       y="179.40961" />
    <rect
       y="163.53459"
       x="18.71254"
       height="4.4999375"
       width="23.051111"
       id="rect21277"
       style="opacity:1;fill:#aacaff;fill-opacity:0.28235294;stroke:#000000;stroke-width:0.50006253;stroke-miterlimit:4;stroke-dasharray:none;stroke-dashoffset:0;stroke-opacity:1" />
    <rect
       style="opacity:1;fill:#ffeeaa;fill-opacity:1;stroke:#000000;stroke-width:0.50006253;stroke-miterlimit:4;stroke-dasharray:none;stroke-dashoffset:0;stroke-opacity:1"
       id="rect21279"
       width="23.051111"
       height="4.4999375"
       x="18.71254"
       y="142.36794" />
    <rect
       y="131.70901"
       x="18.71254"
       height="4.4999375"
       width="23.051111"
       id="rect21281"
       style="opacity:1;fill:#f4d7ee;fill-opacity:1;stroke:#000000;stroke-width:0.50006253;stroke-miterlimit:4;stroke-dasharray:none;stroke-dashoffset:0;stroke-opacity:1" />
    <text
       xml:space="preserve"
       style="font-style:normal;font-weight:normal;font-size:10.58333302px;line-height:1.25;font-family:sans-serif;letter-spacing:0px;word-spacing:0px;fill:#000000;fill-opacity:1;stroke:none;stroke-width:0.26458332"
       x="14.654527"
       y="214.30391"
       id="text21285"><tspan
         sodipodi:role="line"
         id="tspan21283"
         x="14.654527"
         y="214.30391"
         style="font-style:normal;font-variant:normal;font-weight:normal;font-stretch:normal;font-size:5.64444447px;font-family:'Avenir LT 45 Book';-inkscape-font-specification:'Avenir LT 45 Book, ';stroke-width:0.26458332">0x0000</tspan></text>
    <text
       id="text21289"
       y="55.986996"
       x="14.654527"
       style="font-style:normal;font-weight:normal;font-size:10.58333302px;line-height:1.25;font-family:sans-serif;letter-spacing:0px;word-spacing:0px;fill:#000000;fill-opacity:1;stroke:none;stroke-width:0.26458332"
       xml:space="preserve"><tspan
         style="font-style:normal;font-variant:normal;font-weight:normal;font-stretch:normal;font-size:5.64444447px;font-family:'Avenir LT 45 Book';-inkscape-font-specification:'Avenir LT 45 Book, ';stroke-width:0.26458332"
         y="55.986996"
         x="14.654527"
         id="tspan21287"
         sodipodi:role="line">0xffff</tspan></text>
    <g
       id="g21342"
       transform="translate(-45.808738,3.6820028)">
      <text
         xml:space="preserve"
         x="76.022095"
         y="193.13722"
         id="text21297"><tspan
           style="font-style:normal;font-variant:normal;font-weight:normal;font-stretch:normal;font-size:4.23333311px;line-height:0;font-family:'Avenir LT 45 Book';-inkscape-font-specification:'Avenir LT 45 Book, ';text-align:center;text-anchor:middle"
           id="tspan21323"
           sodipodi:role="line"
           x="76.022095"
           y="193.13722">Kernel</tspan><tspan
           id="tspan21327"
           style="font-style:normal;font-variant:normal;font-weight:normal;font-stretch:normal;font-size:5.64444447px;line-height:0;font-family:'Avenir LT 45 Book';-inkscape-font-specification:'Avenir LT 45 Book, ';text-align:center;text-anchor:middle"
           sodipodi:role="line"
           x="76.022095"
           y="208.13722" /></text>
      <text
         id="text21333"
         y="197.89981"
         x="76.022095"
         xml:space="preserve"><tspan
           y="197.89981"
           x="76.022095"
           sodipodi:role="line"
           style="font-style:normal;font-variant:normal;font-weight:normal;font-stretch:normal;font-size:4.23333311px;line-height:0;font-family:'Avenir LT 45 Book';-inkscape-font-specification:'Avenir LT 45 Book, ';text-align:center;text-anchor:middle"
           id="tspan21331">code</tspan></text>
    </g>
    <g
       transform="translate(17.691264,3.6820028)"
       id="g21461" />
    <g
       id="g21509"
       transform="translate(52.616265,3.6820028)" />
    <rect
       y="9.6722527"
       x="74.672607"
       height="29.482143"
       width="54.6763"
       id="rect1546"
       style="opacity:1;fill:none;fill-opacity:0.28235294;stroke:#000000;stroke-width:0.26458332;stroke-miterlimit:4;stroke-dasharray:0.52916666, 0.26458333;stroke-dashoffset:0;stroke-opacity:1" />
    <rect
       y="12.696072"
       x="-107.32004"
       height="23.434525"
       width="28.55563"
       id="rect1548"
       style="opacity:1;fill:#87dc87;fill-opacity:0.28235294;stroke:#000000;stroke-width:0.26458332;stroke-miterlimit:4;stroke-dasharray:none;stroke-dashoffset:0;stroke-opacity:1"
       transform="scale(-1,1)" />
    <rect
       transform="scale(-1,1)"
       style="opacity:1;fill:#ff2a2a;fill-opacity:0.28235294;stroke:#000000;stroke-width:0.26458332;stroke-miterlimit:4;stroke-dasharray:none;stroke-dashoffset:0;stroke-opacity:1"
       id="rect1550"
       width="8.9008675"
       height="23.434525"
       x="-118.73129"
       y="12.696072" />
    <text
       xml:space="preserve"
       style="font-style:normal;font-weight:normal;font-size:5.05838156px;line-height:1.25;font-family:sans-serif;letter-spacing:0px;word-spacing:0px;fill:#000000;fill-opacity:1;stroke:none;stroke-width:0.26458332"
       x="-29.287951"
       y="71.099686"
       id="text2864"
       transform="rotate(-90)"><tspan
         sodipodi:role="line"
         id="tspan2862"
         x="-29.287951"
         y="71.099686"
         style="font-style:normal;font-variant:normal;font-weight:normal;font-stretch:normal;font-family:'Avenir LT 45 Book';-inkscape-font-specification:'Avenir LT 45 Book, ';stroke-width:0.26458332">CPU</tspan></text>
    <text
       style="font-size:12px;stroke-width:1"
       xml:space="preserve"
       x="93.280647"
       y="28.532259"
       id="text21352-7"><tspan
         id="tspan21350-4"
         style="font-style:normal;font-variant:normal;font-weight:normal;font-stretch:normal;font-size:4.23333311px;line-height:0;font-family:'Avenir LT 45 Book';-inkscape-font-specification:'Avenir LT 45 Book, ';text-align:center;text-anchor:middle;stroke-width:1"
         sodipodi:role="line"
         x="93.280647"
         y="28.532259">Proces 1</tspan></text>
    <text
       id="text23258"
       y="23.769754"
       x="93.280647"
       xml:space="preserve"
       style="font-size:12px;stroke-width:1"><tspan
         y="23.769754"
         x="93.280647"
         sodipodi:role="line"
         style="font-style:normal;font-variant:normal;font-weight:normal;font-stretch:normal;font-size:4.23333311px;line-height:0;font-family:'Avenir LT 45 Book';-inkscape-font-specification:'Avenir LT 45 Book, ';text-align:center;text-anchor:middle;stroke-width:1"
         id="tspan23256">Timeslice</tspan></text>
    <text
       id="text23270"
       y="12.76542"
       x="-120.09594"
       style="font-style:normal;font-weight:normal;font-size:10.58333302px;line-height:1.25;font-family:sans-serif;letter-spacing:0px;word-spacing:0px;fill:#000000;fill-opacity:1;stroke:none;stroke-width:0.26458332"
       xml:space="preserve"
       transform="rotate(-90)"><tspan
         style="font-style:normal;font-variant:normal;font-weight:normal;font-stretch:normal;font-size:5.64444447px;font-family:'Avenir LT 45 Book';-inkscape-font-specification:'Avenir LT 45 Book, ';stroke-width:0.26458332"
         y="12.76542"
         x="-120.09594"
         sodipodi:role="line"
         id="tspan23276">Daadwerkelijke Situatie</tspan></text>
    <text
       transform="rotate(-90)"
       xml:space="preserve"
       style="font-style:normal;font-weight:normal;font-size:10.58333302px;line-height:1.25;font-family:sans-serif;letter-spacing:0px;word-spacing:0px;fill:#000000;fill-opacity:1;stroke:none;stroke-width:0.26458332"
       x="-111.36557"
       y="76.477348"
       id="text23282"><tspan
         id="tspan23280"
         sodipodi:role="line"
         x="-111.36557"
         y="76.477348"
         style="font-style:normal;font-variant:normal;font-weight:normal;font-stretch:normal;font-size:5.64444447px;font-family:'Avenir LT 45 Book';-inkscape-font-specification:'Avenir LT 45 Book, ';stroke-width:0.26458332">Perspectief Proces 1</tspan></text>
    <g
       id="g23179"
       transform="matrix(0.93656483,0,0,1,5.2422511,0)"
       style="stroke-width:1.03331101">
      <rect
         style="opacity:1;fill:#ffffff;fill-opacity:1;stroke:#000000;stroke-width:0.51672012;stroke-miterlimit:4;stroke-dasharray:none;stroke-dashoffset:0;stroke-opacity:1"
         id="rect21431"
         width="30.238096"
         height="151.56847"
         x="78.619049"
         y="57.363094" />
      <rect
         y="190.71312"
         x="82.21254"
         height="14.363109"
         width="23.051111"
         id="rect21433"
         style="opacity:1;fill:#ff2727;fill-opacity:0.28235294;stroke:#000000;stroke-width:0.51672012;stroke-miterlimit:4;stroke-dasharray:none;stroke-dashoffset:0;stroke-opacity:1" />
      <rect
         style="opacity:1;fill:#87dc87;fill-opacity:0.28235294;stroke:#000000;stroke-width:0.51672012;stroke-miterlimit:4;stroke-dasharray:none;stroke-dashoffset:0;stroke-opacity:1"
         id="rect21435"
         width="23.051111"
         height="4.4832797"
         x="82.21254"
         y="179.42625" />
      <rect
         y="174.13458"
         x="82.21254"
         height="4.4832797"
         width="23.051111"
         id="rect2570"
         style="opacity:1;fill:#87dc87;fill-opacity:0.28235294;stroke:#000000;stroke-width:0.51672012;stroke-miterlimit:4;stroke-dasharray:none;stroke-dashoffset:0;stroke-opacity:1" />
      <rect
         style="opacity:1;fill:#87dc87;fill-opacity:0.28235294;stroke:#000000;stroke-width:0.51672012;stroke-miterlimit:4;stroke-dasharray:none;stroke-dashoffset:0;stroke-opacity:1"
         id="rect2572"
         width="23.051111"
         height="4.4832797"
         x="82.21254"
         y="168.84291" />
      <rect
         y="163.55124"
         x="82.21254"
         height="4.4832797"
         width="23.051111"
         id="rect2574"
         style="opacity:1;fill:#87dc87;fill-opacity:0.28235294;stroke:#000000;stroke-width:0.51672012;stroke-miterlimit:4;stroke-dasharray:none;stroke-dashoffset:0;stroke-opacity:1" />
      <rect
         style="opacity:1;fill:#87dc87;fill-opacity:0.28235294;stroke:#000000;stroke-width:0.51672012;stroke-miterlimit:4;stroke-dasharray:none;stroke-dashoffset:0;stroke-opacity:1"
         id="rect2576"
         width="23.051111"
         height="4.4832797"
         x="82.21254"
         y="158.25957" />
      <rect
         y="152.9679"
         x="82.21254"
         height="4.4832797"
         width="23.051111"
         id="rect2578"
         style="opacity:1;fill:#87dc87;fill-opacity:0.28235294;stroke:#000000;stroke-width:0.51672012;stroke-miterlimit:4;stroke-dasharray:none;stroke-dashoffset:0;stroke-opacity:1" />
      <text
         xml:space="preserve"
         style="font-style:normal;font-weight:normal;font-size:10.93587494px;line-height:1.25;font-family:sans-serif;letter-spacing:0px;word-spacing:0px;fill:#000000;fill-opacity:1;stroke:none;stroke-width:0.27339688"
         x="79.312202"
         y="189.26797"
         id="text2540-3"
         transform="scale(1.0333111,0.96776276)"><tspan
           sodipodi:role="line"
           id="tspan2538-6"
           x="79.312202"
           y="189.26797"
           style="font-style:normal;font-variant:normal;font-weight:normal;font-stretch:normal;font-size:4.37435007px;font-family:'Avenir LT 45 Book';-inkscape-font-specification:'Avenir LT 45 Book, ';stroke-width:0.27339688"> 0000</tspan></text>
      <text
         transform="scale(1.0333111,0.96776276)"
         id="text2600"
         y="183.80003"
         x="79.312202"
         style="font-style:normal;font-weight:normal;font-size:10.93587494px;line-height:1.25;font-family:sans-serif;letter-spacing:0px;word-spacing:0px;fill:#000000;fill-opacity:1;stroke:none;stroke-width:0.27339688"
         xml:space="preserve"><tspan
           style="font-style:normal;font-variant:normal;font-weight:normal;font-stretch:normal;font-size:4.37435007px;font-family:'Avenir LT 45 Book';-inkscape-font-specification:'Avenir LT 45 Book, ';stroke-width:0.27339688"
           y="183.80003"
           x="79.312202"
           id="tspan2598"
           sodipodi:role="line"> 0001</tspan></text>
      <text
         xml:space="preserve"
         style="font-style:normal;font-weight:normal;font-size:10.93587494px;line-height:1.25;font-family:sans-serif;letter-spacing:0px;word-spacing:0px;fill:#000000;fill-opacity:1;stroke:none;stroke-width:0.27339688"
         x="79.312202"
         y="178.33209"
         id="text2604"
         transform="scale(1.0333111,0.96776276)"><tspan
           sodipodi:role="line"
           id="tspan2602"
           x="79.312202"
           y="178.33209"
           style="font-style:normal;font-variant:normal;font-weight:normal;font-stretch:normal;font-size:4.37435007px;font-family:'Avenir LT 45 Book';-inkscape-font-specification:'Avenir LT 45 Book, ';stroke-width:0.27339688"> 0002</tspan></text>
      <text
         transform="scale(1.0333111,0.96776276)"
         id="text2608"
         y="172.86415"
         x="79.312202"
         style="font-style:normal;font-weight:normal;font-size:10.93587494px;line-height:1.25;font-family:sans-serif;letter-spacing:0px;word-spacing:0px;fill:#000000;fill-opacity:1;stroke:none;stroke-width:0.27339688"
         xml:space="preserve"><tspan
           style="font-style:normal;font-variant:normal;font-weight:normal;font-stretch:normal;font-size:4.37435007px;font-family:'Avenir LT 45 Book';-inkscape-font-specification:'Avenir LT 45 Book, ';stroke-width:0.27339688"
           y="172.86415"
           x="79.312202"
           id="tspan2606"
           sodipodi:role="line"> 0003</tspan></text>
      <text
         xml:space="preserve"
         style="font-style:normal;font-weight:normal;font-size:10.93587494px;line-height:1.25;font-family:sans-serif;letter-spacing:0px;word-spacing:0px;fill:#000000;fill-opacity:1;stroke:none;stroke-width:0.27339688"
         x="79.312202"
         y="167.39621"
         id="text2612"
         transform="scale(1.0333111,0.96776276)"><tspan
           sodipodi:role="line"
           id="tspan2610"
           x="79.312202"
           y="167.39621"
           style="font-style:normal;font-variant:normal;font-weight:normal;font-stretch:normal;font-size:4.37435007px;font-family:'Avenir LT 45 Book';-inkscape-font-specification:'Avenir LT 45 Book, ';stroke-width:0.27339688"> 0004</tspan></text>
      <text
         transform="scale(1.0333111,0.96776276)"
         id="text2616"
         y="161.92827"
         x="79.312202"
         style="font-style:normal;font-weight:normal;font-size:10.93587494px;line-height:1.25;font-family:sans-serif;letter-spacing:0px;word-spacing:0px;fill:#000000;fill-opacity:1;stroke:none;stroke-width:0.27339688"
         xml:space="preserve"><tspan
           style="font-style:normal;font-variant:normal;font-weight:normal;font-stretch:normal;font-size:4.37435007px;font-family:'Avenir LT 45 Book';-inkscape-font-specification:'Avenir LT 45 Book, ';stroke-width:0.27339688"
           y="161.92827"
           x="79.312202"
           id="tspan2614"
           sodipodi:role="line"> 0005</tspan></text>
    </g>
    <rect
       y="174.11794"
       x="18.71254"
       height="4.4999375"
       width="23.051111"
       id="rect2512"
       style="opacity:1;fill:#87dc87;fill-opacity:0.28235294;stroke:#000000;stroke-width:0.50006253;stroke-miterlimit:4;stroke-dasharray:none;stroke-dashoffset:0;stroke-opacity:1" />
    <rect
       style="opacity:1;fill:#87dc87;fill-opacity:0.28235294;stroke:#000000;stroke-width:0.50006253;stroke-miterlimit:4;stroke-dasharray:none;stroke-dashoffset:0;stroke-opacity:1"
       id="rect2514"
       width="23.051111"
       height="4.4999375"
       x="18.71254"
       y="158.24292" />
    <rect
       y="126.4929"
       x="18.71254"
       height="4.4999375"
       width="23.051111"
       id="rect2516"
       style="opacity:1;fill:#87dc87;fill-opacity:0.28235294;stroke:#000000;stroke-width:0.50006253;stroke-miterlimit:4;stroke-dasharray:none;stroke-dashoffset:0;stroke-opacity:1" />
    <rect
       style="opacity:1;fill:#87dc87;fill-opacity:0.28235294;stroke:#000000;stroke-width:0.50006253;stroke-miterlimit:4;stroke-dasharray:none;stroke-dashoffset:0;stroke-opacity:1"
       id="rect2518"
       width="23.051111"
       height="4.4999375"
       x="18.71254"
       y="115.90957" />
    <rect
       style="opacity:1;fill:#aacaff;fill-opacity:0.28235294;stroke:#000000;stroke-width:0.50006253;stroke-miterlimit:4;stroke-dasharray:none;stroke-dashoffset:0;stroke-opacity:1"
       id="rect2522"
       width="23.051111"
       height="4.4999375"
       x="18.71254"
       y="152.95125" />
    <rect
       y="121.20123"
       x="18.71254"
       height="4.4999375"
       width="23.051111"
       id="rect2524"
       style="opacity:1;fill:#aacaff;fill-opacity:0.28235294;stroke:#000000;stroke-width:0.50006253;stroke-miterlimit:4;stroke-dasharray:none;stroke-dashoffset:0;stroke-opacity:1" />
    <rect
       y="147.65961"
       x="18.71254"
       height="4.4999375"
       width="23.051111"
       id="rect2526"
       style="opacity:1;fill:#ffeeaa;fill-opacity:1;stroke:#000000;stroke-width:0.50006253;stroke-miterlimit:4;stroke-dasharray:none;stroke-dashoffset:0;stroke-opacity:1" />
    <rect
       style="opacity:1;fill:#ffeeaa;fill-opacity:1;stroke:#000000;stroke-width:0.50006253;stroke-miterlimit:4;stroke-dasharray:none;stroke-dashoffset:0;stroke-opacity:1"
       id="rect2528"
       width="23.051111"
       height="4.4999375"
       x="18.71254"
       y="110.61794" />
    <rect
       style="opacity:1;fill:#f4d7ee;fill-opacity:1;stroke:#000000;stroke-width:0.50006253;stroke-miterlimit:4;stroke-dasharray:none;stroke-dashoffset:0;stroke-opacity:1"
       id="rect2530"
       width="23.051111"
       height="4.4999375"
       x="18.71254"
       y="168.75072" />
    <rect
       style="opacity:1;fill:#aacaff;fill-opacity:0.28235294;stroke:#000000;stroke-width:0.50006253;stroke-miterlimit:4;stroke-dasharray:none;stroke-dashoffset:0;stroke-opacity:1"
       id="rect2532"
       width="23.051111"
       height="4.4999375"
       x="18.71254"
       y="137.07623" />
    <rect
       y="142.36794"
       x="18.71254"
       height="4.4999375"
       width="23.051111"
       id="rect2534"
       style="opacity:1;fill:#ffeeaa;fill-opacity:1;stroke:#000000;stroke-width:0.50006253;stroke-miterlimit:4;stroke-dasharray:none;stroke-dashoffset:0;stroke-opacity:1" />
    <rect
       style="opacity:1;fill:#f4d7ee;fill-opacity:1;stroke:#000000;stroke-width:0.50006253;stroke-miterlimit:4;stroke-dasharray:none;stroke-dashoffset:0;stroke-opacity:1"
       id="rect2536"
       width="23.051111"
       height="4.4999375"
       x="18.71254"
       y="105.25069" />
    <text
       xml:space="preserve"
       style="font-style:normal;font-weight:normal;font-size:10.58333302px;line-height:1.25;font-family:sans-serif;letter-spacing:0px;word-spacing:0px;fill:#000000;fill-opacity:1;stroke:none;stroke-width:0.26458332"
       x="18.462509"
       y="183.15817"
       id="text2540"><tspan
         sodipodi:role="line"
         id="tspan2538"
         x="18.462509"
         y="183.15817"
         style="font-style:normal;font-variant:normal;font-weight:normal;font-stretch:normal;font-size:4.23333311px;font-family:'Avenir LT 45 Book';-inkscape-font-specification:'Avenir LT 45 Book, ';stroke-width:0.26458332"> 0001</tspan></text>
    <text
       id="text2544"
       y="130.24147"
       x="18.462509"
       style="font-style:normal;font-weight:normal;font-size:10.58333302px;line-height:1.25;font-family:sans-serif;letter-spacing:0px;word-spacing:0px;fill:#000000;fill-opacity:1;stroke:none;stroke-width:0.26458332"
       xml:space="preserve"><tspan
         style="font-style:normal;font-variant:normal;font-weight:normal;font-stretch:normal;font-size:4.23333311px;font-family:'Avenir LT 45 Book';-inkscape-font-specification:'Avenir LT 45 Book, ';stroke-width:0.26458332"
         y="130.24147"
         x="18.462509"
         id="tspan2542"
         sodipodi:role="line"> 0002</tspan></text>
    <text
       xml:space="preserve"
       style="font-style:normal;font-weight:normal;font-size:10.58333302px;line-height:1.25;font-family:sans-serif;letter-spacing:0px;word-spacing:0px;fill:#000000;fill-opacity:1;stroke:none;stroke-width:0.26458332"
       x="18.462509"
       y="161.99149"
       id="text2548"><tspan
         sodipodi:role="line"
         id="tspan2546"
         x="18.462509"
         y="161.99149"
         style="font-style:normal;font-variant:normal;font-weight:normal;font-stretch:normal;font-size:4.23333311px;font-family:'Avenir LT 45 Book';-inkscape-font-specification:'Avenir LT 45 Book, ';stroke-width:0.26458332"> 0003</tspan></text>
    <text
       id="text2552"
       y="119.65813"
       x="18.462509"
       style="font-style:normal;font-weight:normal;font-size:10.58333302px;line-height:1.25;font-family:sans-serif;letter-spacing:0px;word-spacing:0px;fill:#000000;fill-opacity:1;stroke:none;stroke-width:0.26458332"
       xml:space="preserve"><tspan
         style="font-style:normal;font-variant:normal;font-weight:normal;font-stretch:normal;font-size:4.23333311px;font-family:'Avenir LT 45 Book';-inkscape-font-specification:'Avenir LT 45 Book, ';stroke-width:0.26458332"
         y="119.65813"
         x="18.462509"
         id="tspan2550"
         sodipodi:role="line"> 0004</tspan></text>
    <text
       xml:space="preserve"
       style="font-style:normal;font-weight:normal;font-size:10.58333302px;line-height:1.25;font-family:sans-serif;letter-spacing:0px;word-spacing:0px;fill:#000000;fill-opacity:1;stroke:none;stroke-width:0.26458332"
       x="18.462509"
       y="177.8665"
       id="text2556"><tspan
         sodipodi:role="line"
         id="tspan2554"
         x="18.462509"
         y="177.8665"
         style="font-style:normal;font-variant:normal;font-weight:normal;font-stretch:normal;font-size:4.23333311px;font-family:'Avenir LT 45 Book';-inkscape-font-specification:'Avenir LT 45 Book, ';stroke-width:0.26458332"> 0005</tspan></text>
    <path
       style="fill:none;stroke:#000000;stroke-width:0.26458332px;stroke-linecap:butt;stroke-linejoin:miter;stroke-opacity:1;marker-end:url(#marker1419)"
       d="m 82.244175,175.84833 -39.985066,5.2683"
       id="path927"
       inkscape:connector-curvature="0" />
    <path
       style="fill:none;stroke:#000000;stroke-width:0.26499999;stroke-linecap:butt;stroke-linejoin:miter;stroke-miterlimit:4;stroke-dasharray:none;stroke-opacity:1;marker-end:url(#marker1225)"
       d="M 82.279329,155.04534 42.159177,176.37755"
       id="path929"
       inkscape:connector-curvature="0"
       sodipodi:nodetypes="cc" />
    <path
       style="fill:none;stroke:#000000;stroke-width:0.26499999;stroke-linecap:butt;stroke-linejoin:miter;stroke-miterlimit:4;stroke-dasharray:none;stroke-opacity:1;marker-end:url(#marker1221)"
       d="M 82.380693,166.49951 42.395627,161.36629"
       id="path931"
       inkscape:connector-curvature="0" />
    <path
       style="fill:none;stroke:#000000;stroke-width:0.26499999;stroke-linecap:butt;stroke-linejoin:miter;stroke-miterlimit:4;stroke-dasharray:none;stroke-opacity:1;marker-end:url(#marker1217)"
       d="M 82.417013,171.24409 42.026693,128.96258"
       id="path933"
       inkscape:connector-curvature="0" />
    <path
       style="fill:none;stroke:#000000;stroke-width:0.26499999;stroke-linecap:butt;stroke-linejoin:miter;stroke-miterlimit:4;stroke-dasharray:none;stroke-opacity:1;marker-end:url(#marker1229)"
       d="M 82.14021,161.37813 42.020058,118.16221"
       id="path935"
       inkscape:connector-curvature="0"
       sodipodi:nodetypes="cc" />
    <path
       inkscape:connector-curvature="0"
       id="path5265"
       d="m 104.20879,181.77038 16.17257,-1.03497"
       style="fill:none;stroke:#000000;stroke-width:0.26458332px;stroke-linecap:butt;stroke-linejoin:miter;stroke-opacity:1;marker-end:url(#marker5435)"
       sodipodi:nodetypes="cc" />
    <path
       style="fill:#000000;stroke-width:1"
       d="m 139.62798,189.11093 c -1.92242,-0.0659 -8.87489,-0.15956 -13.42155,-0.18118 -2.34162,-0.01 -4.3276,-0.0354 -4.41324,-0.0537 -0.49011,-0.10549 -0.945,-0.48968 -1.12333,-0.94902 l -0.11336,-0.29192 0.003,-12.38311 c 0.007,-13.3187 -0.007,-12.75701 0.25981,-13.3551 0.3011,-0.67784 0.935,-0.98801 1.98434,-0.97114 1.33871,0.0229 9.76127,-0.0577 11.97426,-0.1127 3.6304,-0.0901 4.71565,-0.0383 5.67883,0.27226 0.98421,0.31715 1.50121,0.90807 1.66611,1.90391 0.037,0.22377 0.0528,1.09295 0.0442,2.44977 -0.007,1.15655 0.0131,6.58388 0.0455,12.06079 0.0498,8.45794 0.0478,9.99087 -0.0131,10.17647 -0.0396,0.12024 -0.0878,0.3237 -0.10779,0.45217 -0.10354,0.67689 -0.51377,1.05557 -1.11576,1.03014 -0.0999,-0.003 -0.70742,-0.0262 -1.34994,-0.0475 z m 1.40194,-1.1384 c 0.039,-0.0731 0.0511,-2.51916 0.0406,-8.21647 -0.0196,-10.12205 -0.0164,-13.36532 0.0131,-15.27758 0.0229,-1.50368 0.0229,-1.50607 -0.10058,-1.757 -0.22705,-0.46128 -0.68243,-0.67922 -1.75566,-0.84028 -0.67961,-0.1019 -1.79447,-0.10878 -4.97418,-0.0295 -4.40391,0.10845 -9.74,0.0573 -10.88226,-0.10451 -0.77587,-0.10976 -1.44896,0.0796 -1.6784,0.47248 -0.12745,0.2182 -0.13171,0.42854 -0.0387,1.94813 0.0367,0.5997 0.0511,1.27872 0.0328,1.50895 -0.0197,0.23033 -0.007,1.94748 0.0262,3.81617 0.0439,2.44427 0.0475,5.34284 0.0131,10.33033 -0.0439,6.42058 -0.0541,6.94676 -0.13793,7.12306 -0.056,0.11828 -0.0767,0.23557 -0.0541,0.31027 0.0842,0.27882 0.19658,0.45148 0.32966,0.50659 0.0999,0.0416 1.31443,0.0645 4.11107,0.0783 5.05351,0.0262 13.93812,0.16087 14.88367,0.22771 0.0678,0.003 0.13794,-0.0344 0.1707,-0.0957 z m -4.51717,-0.98945 c -1.09944,-0.0197 -3.49431,-0.0387 -5.32191,-0.0442 -1.8276,-0.007 -3.93054,-0.0295 -4.67316,-0.0521 -1.31344,-0.0406 -1.35754,-0.0455 -1.6187,-0.17791 -0.30371,-0.15398 -0.37638,-0.29028 -0.25391,-0.47709 0.1874,-0.28636 0.3024,-0.30732 1.82104,-0.3358 1.63519,-0.0295 11.52839,0.0367 12.00775,0.0816 0.42782,0.04 0.63498,0.19953 0.63498,0.48844 0,0.14645 -0.039,0.2395 -0.15071,0.35882 -0.0829,0.0888 -0.18609,0.1612 -0.22934,0.1612 -0.0433,0 -0.10976,0.007 -0.14776,0.0164 -0.038,0.01 -0.96868,1.6e-4 -2.06809,-0.0197 z m 0.46268,-3.5961 c -0.66139,-0.23818 -1.02081,-0.52906 -2.62637,-2.12486 l -1.51468,-1.50547 -0.32852,0.0606 c -0.5977,0.11009 -1.62443,0.12647 -2.30152,0.0367 -2.9981,-0.39716 -5.4943,-2.31545 -6.60295,-5.07418 -0.96471,-2.4006 -0.91111,-5.16812 0.14088,-7.2667 1.16235,-2.31892 3.55806,-3.95512 6.38426,-4.36027 0.66011,-0.0947 1.96753,-0.0695 2.66866,0.0518 3.44454,0.59446 6.33354,3.34838 7.04077,6.71163 0.51278,2.43847 -0.003,4.74517 -1.4943,6.66071 -0.35273,0.45357 -1.1532,1.26735 -1.61635,1.64317 l -0.22868,0.18577 0.72203,0.42946 c 1.00115,0.59548 1.28629,0.79612 1.63538,1.15068 0.54774,0.55629 0.79936,1.27911 0.67679,1.94424 -0.12188,0.6613 -0.48466,1.15559 -1.03725,1.41315 -0.42294,0.19723 -1.04276,0.21492 -1.51799,0.0439 z m 1.09315,-1.11273 c 0.37255,-0.18807 0.48935,-0.71018 0.26341,-1.17716 -0.22574,-0.46628 -0.5955,-0.72282 -3.55848,-2.46874 -1.94676,-1.14711 -2.92514,-1.68859 -2.96999,-1.64377 -0.0436,0.0439 4.48932,4.59302 4.87599,4.89349 0.58191,0.45217 1.02674,0.57906 1.3892,0.39618 z m -6.17477,-3.47861 c -0.0894,-0.10714 -0.28012,-0.33488 -0.42415,-0.50623 -0.55734,-0.66349 -0.93238,-1.49993 -0.85571,-1.90856 0.074,-0.39532 0.5227,-0.56946 1.08983,-0.42314 0.70271,0.18118 2.10957,0.83661 3.25133,1.51445 0.43654,0.25916 0.44296,0.26113 0.59141,0.17627 0.0826,-0.0472 0.51734,-0.44797 0.96619,-0.89057 1.09967,-1.0844 1.61589,-1.86888 1.99594,-3.03316 0.23786,-0.72892 0.30962,-1.23219 0.30732,-2.15894 -0.002,-0.92415 -0.0986,-1.54518 -0.36193,-2.3313 -0.61228,-1.82803 -2.04044,-3.43965 -3.84595,-4.34009 -2.86902,-1.43077 -6.40575,-0.85116 -8.69279,1.42462 -0.98208,0.97726 -1.5099,1.94273 -1.82046,3.32992 -0.1055,0.47107 -0.1209,0.67506 -0.1186,1.57936 0.002,0.87629 0.0196,1.12355 0.11991,1.58358 0.38392,1.78448 1.20087,3.25864 2.36364,4.26519 1.00842,0.87288 2.26709,1.48519 3.60714,1.75477 0.64137,0.12908 0.74867,0.14022 1.42687,0.15038 l 0.56252,0.01 z m -1.04046,-4.97488 c -1.26417,-0.2739 -2.16611,-1.41416 -1.97517,-2.49738 0.0976,-0.55445 0.15268,-0.78704 0.22738,-0.96111 0.30044,-0.70081 1.16329,-1.27128 2.11703,-1.39962 0.78658,-0.10582 1.45747,0.10845 1.96721,0.62824 1.41848,1.4466 0.62921,3.88422 -1.37777,4.25523 -0.37989,0.0701 -0.53633,0.0662 -0.95868,-0.0262 z m 1.10327,-1.20769 c 0.268,-0.12122 0.52831,-0.37265 0.678,-0.65526 0.0849,-0.16021 0.11172,-0.30306 0.11271,-0.59983 9.8e-4,-0.33678 -0.0197,-0.42746 -0.15465,-0.67096 -0.27979,-0.50554 -0.73514,-0.71542 -1.4462,-0.66634 -0.70212,0.0485 -0.99761,0.28799 -1.19717,0.97028 -0.17364,0.5941 -0.0459,1.02343 0.40535,1.36132 0.5212,0.39024 1.1052,0.48532 1.60196,0.26079 z m -7.61694,10.62818 c -0.44715,-0.10484 -0.83959,-0.46297 -1.04502,-0.95393 -0.11958,-0.2857 -0.0731,-1.11494 0.0826,-1.46744 0.12875,-0.29192 0.46707,-0.65569 0.74169,-0.79755 0.8676,-0.4483 1.92609,0.007 2.28016,0.9824 0.3333,0.91751 -0.26505,1.95256 -1.28081,2.21506 -0.34307,0.0888 -0.47596,0.0924 -0.77849,0.0229 z m 0.70503,-1.15844 c 0.19363,-0.13171 0.35696,-0.40502 0.35696,-0.5977 0,-0.32826 -0.36063,-0.60815 -0.70127,-0.54423 -0.2395,0.0449 -0.41927,0.19166 -0.55078,0.44951 -0.29389,0.57631 0.34195,1.06828 0.89509,0.69242 z"
       id="path9764"
       inkscape:connector-curvature="0"
       sodipodi:nodetypes="cscscsscsssccccccccscccssccscccccsccccccccccscscccsscssssssscscccccsccssscccsccscscsssssccsccccccscscccccccccccccccccsscc" />
  </g>
</svg>
